<?xml version="1.0" standalone="no"?>
<!DOCTYPE svg PUBLIC "-//W3C//DTD SVG 20010904//EN"
 "http://www.w3.org/TR/2001/REC-SVG-20010904/DTD/svg10.dtd">
<svg version="1.0" xmlns="http://www.w3.org/2000/svg"
 width="300.000000pt" height="225.000000pt" viewBox="0 0 300.000000 225.000000"
 preserveAspectRatio="xMidYMid meet">
<metadata>
Created by potrace 1.10, written by Peter Selinger 2001-2011
</metadata>
<g transform="translate(0.000000,225.000000) scale(0.100000,-0.100000)"
fill="#000000" stroke="none">
<path d="M1420 2024 c-14 -7 -19 -14 -12 -14 6 0 12 -5 12 -11 0 -13 49 -62
52 -51 0 4 2 14 2 22 1 8 7 14 14 13 15 -4 15 12 2 38 -12 22 -34 23 -70 3z
m55 -13 c3 -5 1 -13 -5 -16 -15 -9 -43 3 -35 15 8 13 32 13 40 1z"/>
<path d="M1505 2020 c-3 -6 1 -7 9 -4 18 7 21 14 7 14 -6 0 -13 -4 -16 -10z"/>
<path d="M1396 1913 c-3 -10 -8 -23 -12 -30 -3 -7 8 -5 30 5 46 21 55 42 17
42 -18 0 -31 -6 -35 -17z m41 1 c-3 -3 -12 -4 -19 -1 -8 3 -5 6 6 6 11 1 17
-2 13 -5z"/>
<path d="M1797 1891 c-34 -36 -38 -53 -43 -165 -4 -78 -9 -103 -22 -112 -15
-11 -12 -13 21 -12 20 1 37 6 37 12 0 6 4 6 11 -1 18 -18 1 -32 -34 -26 -38 6
-53 -7 -60 -52 -4 -28 -4 -27 -6 7 0 20 3 38 8 40 4 2 5 12 0 23 -6 17 -8 17
-8 3 -1 -10 -5 -18 -10 -18 -5 0 -7 8 -4 18 3 12 -1 19 -10 19 -10 0 -14 -8
-11 -21 3 -21 3 -21 -11 -2 -8 11 -15 17 -15 13 0 -4 -10 1 -22 13 -21 19 -89
29 -87 13 1 -5 1 -20 0 -35 -1 -21 -5 -25 -21 -21 -16 4 -19 11 -14 27 4 11
12 24 18 28 7 5 6 8 -4 8 -9 0 -11 3 -5 8 13 9 16 42 4 42 -14 0 -11 28 4 33
10 4 10 6 0 6 -15 1 -18 31 -4 31 5 0 7 9 4 20 -5 18 -13 21 -52 19 -25 -1
-52 0 -60 2 -7 2 -16 -2 -18 -9 -3 -7 1 -11 9 -10 7 2 12 -3 10 -10 -1 -6 1
-11 5 -11 5 1 15 1 23 0 13 -1 13 -2 0 -11 -8 -5 -10 -10 -4 -10 6 0 11 -7 11
-15 0 -8 -2 -13 -5 -10 -2 2 -11 -2 -19 -10 -16 -17 -12 -81 5 -78 6 2 9 -4 6
-12 -5 -11 2 -15 27 -15 18 0 29 -3 26 -7 -11 -10 -56 -12 -62 -2 -4 5 -11 9
-16 9 -6 0 -7 -5 -3 -12 5 -7 3 -8 -5 -4 -7 5 -18 1 -25 -10 -22 -30 1 -54 51
-54 33 0 43 -4 43 -16 0 -9 6 -14 13 -11 6 2 17 -3 24 -12 9 -13 10 -11 6 12
-6 33 11 36 28 5 7 -13 17 -28 24 -34 7 -7 9 -30 6 -60 l-6 -49 -42 -3 c-28
-2 -43 1 -43 9 0 8 12 10 40 5 37 -6 40 -4 39 16 0 13 -3 17 -6 11 -6 -16 -53
-17 -53 -2 0 6 7 9 15 6 8 -4 17 -2 20 3 4 6 0 10 -7 10 -10 0 -10 2 -1 8 7 4
11 17 10 29 -1 21 -11 22 -13 2 -1 -5 -2 -12 -3 -16 0 -3 -9 1 -18 9 -19 16
-54 20 -63 8 -3 -4 -16 -11 -30 -15 -25 -7 -25 -7 -5 10 21 17 16 17 -25 -3
-21 -11 -32 -10 -64 3 -27 11 -36 20 -32 31 4 10 1 14 -6 11 -7 -2 -12 -12
-12 -21 1 -9 -2 -16 -7 -16 -5 0 -9 -11 -9 -25 0 -14 -4 -25 -9 -25 -12 0 -19
64 -10 88 6 15 3 21 -12 25 -19 5 -28 51 -11 61 5 3 6 -8 4 -25 -3 -22 0 -29
13 -29 10 0 15 6 12 13 -2 6 0 21 4 32 6 13 8 -2 6 -44 -3 -49 -1 -59 6 -43 6
12 16 22 23 22 7 0 15 6 17 13 4 9 8 8 17 -3 9 -12 10 -10 6 13 -5 22 -3 27
11 26 11 0 13 -3 5 -6 -6 -2 -10 -9 -6 -14 11 -18 20 -8 22 26 2 26 -1 35 -13
35 -8 0 -15 5 -15 12 0 6 -3 8 -7 5 -3 -4 2 -17 13 -29 16 -17 16 -20 3 -15
-9 3 -22 0 -29 -6 -10 -9 -11 -9 -6 0 9 16 -3 43 -20 43 -8 0 -11 6 -8 15 4 8
10 15 16 15 5 0 6 -4 3 -10 -3 -5 -2 -10 3 -10 20 0 24 90 7 132 -4 10 -22 20
-41 24 -27 5 -38 2 -48 -12 -11 -15 -17 -16 -29 -6 -20 17 -39 12 -54 -13 -15
-24 -17 -85 -3 -85 6 0 10 13 10 29 0 59 17 75 48 44 16 -15 15 -16 -11 -9
-15 3 -27 2 -27 -3 0 -5 13 -11 29 -13 25 -4 31 0 36 19 5 23 25 33 25 13 0
-5 -4 -10 -10 -10 -5 0 -10 -9 -10 -19 0 -17 -5 -19 -35 -14 -24 4 -35 2 -35
-6 0 -7 5 -9 10 -6 6 3 16 3 22 -1 9 -6 5 -10 -12 -15 -21 -6 -19 -7 13 -8 23
-1 36 -5 32 -11 -10 -16 21 -12 35 5 6 8 8 20 4 26 -4 7 -3 9 4 5 6 -3 14 4
18 16 7 22 7 22 14 3 4 -11 4 -25 -1 -31 -5 -6 -5 -14 -1 -18 4 -5 -2 -6 -13
-4 -17 2 -19 -2 -17 -24 4 -30 -15 -39 -24 -13 -4 8 -12 15 -20 15 -8 0 -14 5
-14 10 0 6 -8 10 -17 10 -15 0 -16 -2 -3 -10 13 -8 12 -10 -2 -10 -10 0 -18 5
-18 10 0 17 -26 11 -44 -9 -14 -16 -15 -23 -6 -41 7 -12 10 -35 8 -50 -3 -19
0 -26 8 -23 7 2 15 -1 19 -7 4 -6 15 -8 25 -5 14 4 17 1 14 -22 -2 -17 -1 -20
3 -8 3 11 10 23 17 27 6 4 -3 10 -22 14 -37 8 -38 27 -1 32 19 2 21 1 9 -7
-12 -9 -12 -11 3 -17 10 -3 22 -15 28 -25 7 -15 6 -17 -6 -13 -8 4 -15 2 -15
-4 0 -6 4 -12 9 -14 13 -5 24 -48 12 -48 -6 0 -11 4 -11 9 0 5 -21 9 -46 8
-33 0 -49 4 -56 16 -7 14 -13 15 -30 6 -13 -7 -18 -7 -14 -1 3 6 -4 18 -16 26
-20 14 -23 14 -31 1 -11 -20 -2 -33 36 -49 l32 -13 -42 0 c-24 0 -43 3 -43 8
0 5 8 6 18 3 14 -5 14 -4 2 4 -10 8 -18 8 -27 0 -17 -14 -22 -9 -29 33 -5 31
-4 32 9 17 17 -22 23 -22 31 -2 4 9 2 13 -5 8 -6 -4 -15 -1 -19 6 -13 21 -30
1 -30 -34 0 -17 -5 -37 -12 -44 -9 -9 1 -12 45 -12 31 0 57 -4 57 -9 0 -6 12
-6 29 -1 16 4 32 6 34 3 11 -10 42 -10 50 1 5 8 10 7 16 -3 7 -11 9 -11 14 0
3 8 5 1 5 -16 0 -16 -2 -24 -5 -17 -6 14 -43 16 -43 2 0 -5 -7 -10 -15 -10 -9
0 -12 6 -9 15 5 12 -2 15 -31 15 -29 0 -36 -3 -32 -15 8 -18 -11 -30 -40 -26
-13 1 -23 -2 -23 -8 0 -6 -5 -11 -11 -11 -5 0 -8 4 -4 9 3 5 1 12 -4 15 -5 4
-12 2 -16 -4 -4 -6 -10 -8 -15 -5 -4 3 -14 -3 -21 -13 -13 -15 -12 -16 4 -3 9
7 17 10 17 5 0 -13 48 -34 52 -22 2 5 10 10 18 12 41 8 69 26 64 41 -11 29 6
15 21 -17 8 -18 13 -25 10 -15 -4 14 -1 17 13 13 9 -3 46 -8 82 -11 47 -3 61
-2 50 6 -12 8 -10 9 8 4 30 -9 94 3 87 16 -4 5 1 9 9 9 8 0 18 -4 21 -10 3 -5
2 -10 -4 -10 -11 0 -9 -26 4 -37 4 -4 6 -3 3 2 -9 16 16 32 37 24 14 -5 16 -8
5 -9 -8 -2 -18 -2 -22 -1 -5 0 -8 -6 -8 -14 0 -8 5 -15 10 -15 6 0 10 4 10 9
0 5 9 13 21 16 12 4 18 12 15 21 -5 12 -2 12 16 3 12 -7 31 -13 43 -14 34 -4
35 -5 35 -20 0 -7 -7 -18 -16 -23 -13 -7 -12 -11 10 -25 24 -16 26 -16 44 8
19 24 40 36 27 15 -3 -5 -1 -10 4 -10 15 0 14 33 -1 48 -7 7 -23 13 -38 13
-14 1 -1 5 28 9 54 8 77 19 55 27 -7 3 -13 11 -13 20 0 15 25 13 25 -3 1 -5 7
-19 15 -31 13 -20 23 -23 77 -23 l62 0 4 -32 c2 -18 3 -9 2 20 -2 50 0 53 19
48 12 -3 27 -1 35 3 16 11 43 3 36 -10 -11 -17 -19 -300 -9 -331 4 -12 0 -18
-10 -18 -10 0 -16 9 -16 25 0 14 -4 25 -10 25 -5 0 -10 -11 -10 -24 0 -19 -6
-26 -27 -29 l-28 -4 28 -2 c23 -1 27 -5 27 -31 0 -20 -5 -30 -15 -30 -8 0 -12
6 -9 14 7 17 -24 49 -42 42 -7 -3 -16 -2 -18 3 -3 4 10 14 29 21 41 16 53 44
31 69 -13 14 -34 18 -94 20 -124 2 -151 5 -145 14 3 5 -3 5 -13 -1 -11 -5 -38
-9 -61 -8 -23 1 -39 -2 -35 -5 7 -8 105 -17 179 -18 37 -1 41 -3 36 -22 -5
-18 -11 -20 -47 -15 -70 9 -151 10 -154 1 -3 -11 14 -14 128 -16 52 -2 106 -6
120 -11 16 -5 -2 -7 -52 -5 -42 1 -75 0 -73 -3 2 -3 -25 -6 -59 -8 -33 -2 -70
-5 -81 -7 -11 -2 -24 -4 -30 -5 -5 -1 -1 -5 10 -9 11 -5 23 -4 26 1 4 6 47 5
115 -2 60 -7 127 -14 149 -15 63 -4 65 -4 65 -20 0 -11 -5 -12 -24 -5 -13 5
-38 6 -55 4 -19 -3 -31 -1 -31 6 0 7 -6 8 -17 2 -10 -5 -65 -5 -127 0 -101 8
-127 6 -114 -7 3 -3 63 -9 133 -13 89 -5 130 -11 133 -19 3 -10 -12 -13 -52
-13 -31 0 -56 -4 -56 -8 0 -4 25 -6 57 -4 31 2 59 -1 62 -6 8 -12 110 -22 117
-11 3 5 -4 9 -14 9 -11 0 -23 7 -26 16 -9 23 -8 24 17 24 12 0 29 0 37 1 8 0
34 -7 58 -15 26 -10 72 -16 115 -16 91 1 269 -9 275 -15 3 -3 -6 -5 -19 -5
-19 0 -21 -2 -9 -11 11 -7 8 -9 -15 -6 -17 3 -48 1 -70 -3 -33 -6 -26 -7 39
-8 44 -1 83 -5 87 -9 4 -4 9 -19 12 -33 4 -21 4 -20 6 8 0 17 4 33 9 33 4 1
57 3 118 4 89 2 111 -1 111 -12 0 -9 -9 -13 -23 -11 -13 2 -22 0 -21 -3 1 -3
-3 -12 -9 -20 -23 -29 -24 -49 -4 -49 16 0 20 7 20 30 0 17 5 30 10 30 6 0 10
-16 10 -35 0 -31 -3 -35 -25 -35 -14 0 -25 -4 -25 -10 0 -20 47 -10 58 13 10
18 11 8 10 -58 -2 -99 -6 -114 -25 -89 -7 10 -13 13 -13 7 0 -6 -9 -9 -20 -6
-11 3 -20 10 -20 15 0 5 -6 6 -12 2 -10 -6 -10 -4 0 8 9 11 10 18 2 23 -12 8
-32 -3 -25 -15 8 -13 -26 -22 -40 -10 -9 7 -16 6 -25 -4 -10 -13 -7 -16 13
-21 13 -4 31 -5 38 -4 8 1 21 0 29 -4 8 -3 36 -8 63 -12 43 -6 47 -9 48 -33 0
-15 3 -21 6 -14 2 6 9 10 14 6 5 -3 9 5 9 17 0 17 4 20 23 15 12 -3 34 -6 50
-6 25 0 27 -3 27 -39 0 -40 -5 -44 -68 -57 -6 -1 -35 -14 -64 -28 -29 -14 -62
-26 -75 -26 -13 0 -40 -9 -60 -20 -21 -11 -43 -20 -50 -20 -7 0 -13 -4 -13
-10 0 -5 1 -10 3 -10 3 0 156 52 246 84 41 14 85 26 98 26 25 0 31 17 9 26
-20 8 -16 92 5 97 9 3 23 1 30 -4 12 -8 12 -11 0 -18 -12 -8 -9 -11 12 -16 15
-4 36 -5 47 -2 11 3 20 2 20 -2 0 -4 6 -8 13 -9 6 0 42 -4 80 -8 57 -6 67 -5
67 8 0 9 -12 19 -27 22 -16 4 -36 9 -47 13 -12 3 -16 1 -11 -7 5 -8 -3 -10
-26 -8 -19 3 -33 7 -31 11 1 4 2 10 2 13 0 4 7 1 15 -6 8 -6 19 -8 26 -5 7 5
-9 14 -37 24 -46 15 -50 15 -58 -1 -5 -10 -13 -18 -19 -18 -5 0 -4 7 3 15 10
12 10 18 0 30 -15 18 -10 18 24 5 27 -10 56 -4 56 11 0 4 -6 6 -13 3 -7 -2
-24 0 -38 5 -17 7 -19 10 -6 10 9 1 17 5 17 11 0 5 19 20 43 34 36 21 48 24
82 16 22 -5 42 -7 44 -4 10 10 -25 24 -62 24 -49 0 -164 -70 -173 -106 -7 -29
-35 -31 -52 -4 -7 12 -8 20 -2 20 5 0 10 -4 10 -10 0 -5 7 -10 15 -10 13 0 19
16 17 41 -1 3 4 6 11 6 7 0 44 19 82 43 39 23 62 40 52 36 -10 -3 -37 -9 -59
-12 -22 -4 -35 -10 -29 -13 6 -4 2 -12 -10 -19 -18 -12 -20 -11 -17 9 2 12 -3
24 -10 26 -7 3 -10 -1 -6 -11 3 -9 3 -24 -1 -33 -7 -17 -8 -16 -15 2 -7 16 -9
12 -9 -18 -1 -23 -5 -36 -11 -32 -5 3 -9 24 -8 46 1 21 -2 42 -5 46 -4 3 -7
-5 -7 -18 0 -38 -11 -69 -22 -63 -6 4 -5 -4 2 -16 6 -12 9 -32 6 -44 -4 -17
-12 -21 -38 -20 -18 1 -44 2 -58 3 -21 1 -22 3 -8 11 10 6 15 20 14 35 -2 13
1 22 5 19 12 -7 11 3 -1 27 -8 14 -7 19 1 19 6 0 9 9 6 20 -4 14 0 20 11 21
14 0 13 2 -3 9 -14 6 -7 8 25 6 25 -1 56 4 70 11 13 7 27 8 30 3 3 -5 28 -11
55 -14 29 -3 42 -2 30 3 -19 8 -19 8 3 20 18 10 22 9 22 -4 0 -8 4 -15 10 -15
11 0 1 30 -16 48 -7 6 -19 12 -26 12 -10 0 -9 -3 2 -10 10 -6 11 -10 3 -10 -7
0 -12 -5 -10 -11 1 -6 -4 -14 -11 -16 -10 -4 -12 3 -10 23 4 34 4 34 71 33 28
-1 42 -4 30 -6 -16 -3 -23 -11 -23 -28 0 -19 6 -25 33 -29 42 -7 87 -3 87 8 0
4 -16 6 -35 4 -22 -2 -34 0 -31 6 2 6 9 10 15 9 17 -4 13 15 -6 26 -15 9 -14
10 10 11 16 0 26 -4 22 -10 -3 -5 0 -10 8 -10 24 0 15 30 -10 31 -12 1 -31 2
-40 2 -10 1 -21 6 -25 12 -5 7 -8 6 -8 -1 0 -7 -18 -11 -47 -10 -47 1 -48 2
-54 36 -4 25 -7 15 -8 -37 -1 -55 -4 -73 -15 -73 -11 0 -13 17 -11 83 1 45 3
85 4 90 2 14 21 7 21 -9 0 -8 5 -12 10 -9 6 4 8 11 5 16 -4 5 23 9 64 9 64 0
71 -2 71 -20 0 -18 -5 -19 -67 -15 l-68 5 37 -16 c20 -8 39 -23 41 -32 4 -15
5 -15 6 -1 0 9 11 19 24 23 32 8 35 8 40 -11 3 -10 5 -1 6 20 1 48 28 52 34 5
4 -32 4 -32 5 5 2 31 -1 37 -18 37 -11 0 -20 5 -20 10 0 6 9 10 20 10 17 0 20
6 19 43 l-2 42 -7 -35 c-4 -19 -8 -29 -9 -22 0 7 -5 10 -11 7 -6 -4 -10 12
-10 39 0 33 4 46 14 46 8 0 18 5 21 10 4 6 -8 10 -29 10 -24 0 -36 -5 -36 -14
0 -8 4 -16 9 -18 5 -1 7 -15 4 -30 -5 -27 -7 -28 -74 -28 l-69 0 0 34 c0 24 5
36 18 39 16 4 16 5 0 6 -10 0 -18 6 -18 11 0 12 2 12 35 0 35 -13 103 4 128
33 15 18 20 19 27 7 8 -12 10 -12 10 -2 0 8 -9 16 -20 19 -11 3 -20 12 -20 19
0 8 9 14 20 14 11 0 20 5 20 10 0 6 -13 10 -30 10 -23 0 -30 -4 -30 -20 0 -16
-4 -18 -23 -11 -27 11 -96 4 -114 -11 -7 -6 -13 -20 -12 -32 6 -66 -2 -186
-12 -186 -8 0 -9 41 -4 143 4 78 9 144 12 147 2 2 12 0 21 -6 9 -6 38 -8 65
-6 l47 4 -2 39 c-3 39 -11 49 -23 29 -4 -6 -2 -17 5 -25 13 -16 -1 -28 -23
-19 -17 6 -31 34 -18 34 5 0 7 10 4 23 -4 17 -3 19 6 11 7 -7 21 -10 31 -7 25
7 24 54 -2 61 -13 3 -17 10 -12 24 4 13 2 18 -4 14 -6 -3 -13 -2 -17 4 -3 5
-17 10 -31 10 -13 0 -24 5 -24 10 0 16 -27 12 -45 -7 -16 -15 -15 -17 9 -32
15 -9 26 -25 26 -38 0 -12 4 -24 9 -27 10 -6 9 -13 -4 -58 -6 -25 -16 -33 -37
-29 -5 0 -9 -16 -9 -37 -1 -27 -3 -30 -6 -12 -10 52 -23 43 -24 -16 -1 -32 -3
-79 -4 -104 -2 -25 -4 -63 -4 -85 l-1 -40 -87 3 c-49 1 -106 5 -128 7 -37 5
-41 8 -40 33 0 15 4 33 8 40 5 6 5 12 0 13 -4 0 -18 2 -31 3 -13 2 -25 -1 -28
-6 -3 -4 4 -8 15 -8 17 0 21 -6 21 -37 l0 -36 -97 6 c-54 4 -124 7 -155 7 -33
0 -58 4 -58 10 0 7 37 10 104 8 60 -2 107 1 113 7 21 23 22 46 3 63 -16 13
-38 16 -121 14 -90 -2 -101 -1 -95 13 3 9 6 18 6 20 0 2 12 1 28 -1 96 -14
153 -11 177 8 52 40 19 74 -75 78 -145 5 -134 2 -137 33 -2 29 1 30 58 27 25
-1 38 4 42 14 5 11 0 16 -13 16 -21 0 -27 15 -10 25 6 3 10 1 10 -4 0 -6 11
-11 25 -11 14 0 25 -4 25 -10 0 -5 -4 -10 -10 -10 -5 0 -10 -4 -10 -9 0 -9 62
-14 328 -27 88 -4 127 -3 135 6 9 8 8 10 -5 5 -12 -5 -18 -2 -18 8 0 20 29 49
41 42 5 -4 9 -2 9 4 0 5 3 16 6 25 4 10 1 16 -10 16 -9 0 -13 -6 -10 -15 6
-15 -33 -37 -48 -28 -4 2 -5 -4 -1 -14 3 -10 3 -15 -2 -11 -4 4 -17 3 -27 -3
-14 -8 -23 -8 -31 0 -8 8 -3 11 19 12 16 0 23 3 17 6 -8 3 -11 14 -7 27 6 25
-18 51 -40 43 -7 -3 -19 0 -25 6 -10 9 -16 7 -27 -7 -8 -11 -14 -26 -14 -34 0
-11 -3 -12 -14 -2 -8 6 -13 17 -10 24 4 9 -10 15 -45 20 -28 4 -51 11 -51 16
0 15 34 17 69 2 l34 -13 -5 46 c-3 25 -7 47 -9 49 -2 2 -25 6 -51 9 -43 6 -47
5 -51 -16 -3 -16 -5 -13 -6 10 0 17 -5 35 -11 38 -6 4 -7 -1 -3 -11 4 -10 2
-15 -3 -11 -6 3 -16 2 -24 -3 -8 -5 -19 -5 -26 1 -7 6 -16 4 -24 -6 -10 -12
-16 -13 -27 -4 -11 10 -12 8 -7 -7 5 -14 2 -13 -11 4 -14 19 -25 23 -51 20
-18 -2 -31 -1 -29 3 3 3 -13 5 -35 4 -22 -1 -37 1 -35 6 3 4 1 10 -5 14 -5 3
-10 -3 -10 -14 0 -17 6 -21 36 -21 31 0 35 -2 24 -15 -9 -11 -17 -12 -30 -5
-26 14 -28 13 -40 -12 -10 -21 -10 -21 3 -5 22 27 28 21 22 -24 -3 -25 -1 -38
5 -34 6 3 10 2 10 -3 0 -6 -7 -12 -15 -16 -11 -4 -15 2 -15 24 0 17 -5 30 -11
30 -7 0 -9 -9 -5 -24 4 -17 1 -26 -10 -30 -23 -9 -26 -8 -20 12 10 30 -9 48
-37 35 -13 -6 -51 -9 -90 -6 -67 6 -85 -1 -100 -37 -4 -11 -6 -10 -7 5 -1 11
-2 23 -1 28 0 4 -38 8 -86 9 l-88 2 72 3 c58 3 71 7 66 19 -4 10 0 12 11 8 9
-3 16 -10 16 -15 0 -5 20 -9 45 -9 25 0 45 5 45 10 0 6 6 10 14 10 8 0 18 4
21 10 4 6 -1 7 -11 3 -14 -5 -16 -2 -12 18 3 13 2 35 -2 49 -6 20 -8 16 -7
-18 0 -28 -5 -47 -14 -53 -11 -7 -15 0 -19 34 -3 23 -8 41 -12 40 -5 -2 -18
-3 -30 -3 -18 0 -20 -2 -8 -10 9 -5 19 -5 27 2 10 8 13 6 13 -6 0 -11 -9 -16
-29 -16 -35 0 -46 13 -29 32 12 12 19 80 8 73 -3 -2 -12 1 -20 7 -12 8 -12 9
3 4 9 -3 17 -1 17 4 0 6 5 10 11 10 6 0 9 -9 6 -19 -2 -10 -1 -25 4 -32 6 -10
9 -5 10 16 1 17 0 36 -1 44 -1 8 4 17 10 21 7 4 9 16 6 27 -10 33 -96 26 -96
-8 0 -5 5 -9 10 -9 6 0 10 7 10 15 0 18 16 20 26 4 5 -8 8 -8 14 0 5 9 10 8
20 -4 8 -10 9 -15 1 -15 -6 0 -11 -7 -11 -16 0 -8 -4 -12 -10 -9 -5 3 -10 1
-10 -4 0 -6 -13 -11 -28 -11 -29 0 -36 17 -26 68 4 19 11 22 50 22 29 0 43 4
39 11 -4 6 -22 9 -40 7 -19 -1 -37 0 -40 4 -3 3 18 6 48 6 l54 0 -3 -69 c-1
-38 1 -69 6 -69 10 0 11 9 11 123 -1 72 -4 94 -21 117 -11 15 -20 32 -20 37 0
19 -30 9 -53 -16z m52 -31 c12 -22 21 -50 21 -62 0 -21 0 -21 -15 -2 -9 11
-13 13 -10 4 4 -12 -4 -15 -35 -15 -32 0 -39 3 -34 15 4 8 9 25 11 38 3 12 9
22 13 22 4 0 10 9 13 20 7 28 12 25 36 -20z m-379 -99 c0 -22 5 -41 13 -44 6
-2 9 -8 5 -12 -4 -4 -14 -2 -23 5 -17 14 -21 90 -5 90 6 0 10 -18 10 -39z m17
-23 c-3 -7 -5 -2 -5 12 0 14 2 19 5 13 2 -7 2 -19 0 -25z m-217 2 c13 -8 12
-10 -2 -10 -10 0 -18 -7 -18 -15 0 -8 -4 -15 -9 -15 -5 0 -8 11 -8 25 0 26 12
31 37 15z m224 -60 c15 -14 -2 -27 -39 -28 -20 -1 -33 3 -30 8 3 5 12 7 20 3
11 -4 13 -1 9 10 -3 9 -11 18 -17 20 -7 2 2 2 18 -1 17 -2 34 -8 39 -12z m286
-50 c0 -5 -4 -10 -10 -10 -5 0 -10 5 -10 10 0 6 5 10 10 10 6 0 10 -4 10 -10z
m-650 -26 c0 -14 4 -23 10 -19 16 10 12 -5 -7 -23 -16 -16 -16 -16 -10 0 3 10
0 24 -8 32 -19 19 -19 36 0 36 9 0 15 -10 15 -26z m484 1 c-4 -8 -15 -15 -26
-15 -10 0 -16 5 -13 10 3 6 2 10 -4 10 -5 0 -11 -5 -13 -12 -3 -7 -7 -6 -11 5
-5 14 0 17 33 17 31 0 38 -3 34 -15z m-440 -10 c-4 -8 -8 -15 -10 -15 -2 0 -4
7 -4 15 0 8 4 15 10 15 5 0 7 -7 4 -15z m89 -25 c-3 -11 0 -20 6 -20 6 0 11
-4 11 -10 0 -5 -7 -10 -15 -10 -11 0 -15 11 -15 36 0 19 4 33 9 30 5 -3 7 -15
4 -26z m160 3 c4 -4 32 -5 62 -4 44 2 55 -1 55 -13 0 -19 -20 -22 -21 -3 0 10
-2 10 -6 0 -2 -7 -13 -13 -24 -13 -10 0 -19 6 -19 13 0 8 -3 8 -8 2 -9 -14
-55 -17 -47 -4 4 5 -1 9 -9 9 -9 0 -16 -6 -16 -12 0 -14 -20 11 -20 25 0 9 44
9 53 0z m160 0 c-7 -2 -19 -2 -25 0 -7 3 -2 5 12 5 14 0 19 -2 13 -5z m67 -8
c0 -8 -2 -15 -4 -15 -2 0 -6 7 -10 15 -3 8 -1 15 4 15 6 0 10 -7 10 -15z m28
-45 c-1 -33 -5 -60 -10 -60 -4 0 -8 27 -8 60 0 33 4 60 9 60 5 0 9 -27 9 -60z
m78 0 l-1 -60 -35 1 c-19 1 -27 3 -17 6 9 2 17 9 17 14 0 6 -4 7 -10 4 -5 -3
-10 -2 -10 3 0 22 29 20 33 -1 2 -12 5 4 6 36 0 31 5 57 10 57 5 0 8 -27 7
-60z m50 44 c-18 -18 -18 -17 -10 -38 4 -10 18 -16 40 -16 24 0 34 -5 34 -15
0 -16 -12 -20 -24 -7 -4 4 -16 8 -27 8 -10 1 -22 2 -26 3 -13 2 -13 65 0 73
21 13 29 9 13 -8z m-196 -33 c0 -28 -1 -29 -29 -18 -24 9 -28 14 -20 29 5 10
19 18 29 18 15 0 20 -7 20 -29z m-45 -31 c3 -5 1 -10 -4 -10 -6 0 -11 5 -11
10 0 6 2 10 4 10 3 0 8 -4 11 -10z m54 -21 c-14 -14 -18 -29 -16 -57 4 -38 0
-62 -12 -62 -3 0 -6 32 -7 71 -1 39 2 65 6 59 5 -9 11 -8 21 3 8 8 17 13 21
11 4 -3 -2 -14 -13 -25z m624 10 c-15 -15 -53 -19 -47 -6 2 7 16 13 30 14 16
0 22 -3 17 -8z m107 1 c0 -5 -7 -10 -15 -10 -8 0 -15 5 -15 10 0 6 7 10 15 10
8 0 15 -4 15 -10z m36 -17 c-10 -10 -19 5 -10 18 6 11 8 11 12 0 2 -7 1 -15
-2 -18z m125 3 c0 -6 2 -21 5 -34 4 -20 1 -22 -18 -16 -13 3 -25 11 -27 16 -2
6 -8 4 -13 -3 -7 -10 -8 -8 -5 9 3 14 -1 25 -11 31 -11 6 -3 9 26 8 23 0 42
-6 43 -11z m-1481 -16 c0 -5 -7 -7 -15 -4 -8 4 -15 8 -15 10 0 2 7 4 15 4 8 0
15 -4 15 -10z m1246 -23 c1 -15 -3 -27 -7 -27 -5 0 -9 -4 -9 -9 0 -4 33 -9 73
-9 39 -1 87 -3 105 -5 17 -2 41 -4 52 -5 11 -1 20 -7 20 -13 0 -10 -20 -9
-115 5 -5 0 -13 6 -17 11 -5 6 -8 5 -8 -3 0 -9 -10 -12 -27 -10 -22 2 -27 -1
-25 -14 2 -12 -3 -18 -15 -18 -15 0 -16 2 -3 10 12 8 12 10 1 10 -11 0 -11 3
-1 15 14 17 10 18 -23 6 -23 -9 -25 -7 -30 22 -5 39 2 69 17 64 6 -2 11 -16
12 -30z m-639 -3 c-9 -9 -28 6 -21 18 4 6 10 6 17 -1 6 -6 8 -13 4 -17z m548
1 c-1 -36 -14 -85 -24 -85 -5 0 -7 20 -5 45 3 27 0 45 -6 45 -5 0 -10 5 -10
11 0 6 10 9 23 7 14 -2 22 -10 22 -23z m35 15 c0 -5 -4 -10 -10 -10 -5 0 -10
5 -10 10 0 6 5 10 10 10 6 0 10 -4 10 -10z m170 2 c0 -4 -18 -9 -40 -10 -23
-2 -40 2 -40 8 0 5 18 10 40 10 22 0 40 -4 40 -8z m30 -2 c0 -5 -4 -10 -10
-10 -5 0 -10 5 -10 10 0 6 5 10 10 10 6 0 10 -4 10 -10z m-1127 -7 c-7 -2 -19
-2 -25 0 -7 3 -2 5 12 5 14 0 19 -2 13 -5z m1502 -3 c3 -5 -1 -10 -10 -10 -9
0 -13 5 -10 10 3 6 8 10 10 10 2 0 7 -4 10 -10z m-1345 -10 c0 -5 -4 -10 -10
-10 -5 0 -10 5 -10 10 0 6 5 10 10 10 6 0 10 -4 10 -10z m40 0 c0 -5 -8 -10
-17 -10 -15 0 -16 2 -3 10 19 12 20 12 20 0z m552 -23 c-5 -18 -7 -19 -10 -4
-2 10 -8 14 -15 10 -7 -4 -6 0 2 10 17 22 31 13 23 -16z m-927 5 c-3 -3 -11 0
-18 7 -9 10 -8 11 6 5 10 -3 15 -9 12 -12z m653 8 c2 6 8 10 14 10 6 0 5 -6
-2 -15 -7 -9 -21 -13 -31 -10 -12 4 -19 1 -19 -6 0 -8 -6 -7 -18 4 -11 10 -23
13 -31 8 -11 -7 -10 -10 5 -14 16 -4 16 -5 -3 -6 -13 0 -23 3 -23 9 0 18 33
27 69 19 22 -5 37 -4 39 1z m200 -9 c2 -7 -11 -11 -35 -11 -27 0 -40 4 -40 13
0 17 69 15 75 -2z m447 9 c7 -11 -97 -11 -115 0 -10 6 6 9 48 9 34 0 64 -4 67
-9z m436 -29 c-10 -7 -12 -25 -9 -70 3 -48 1 -61 -10 -61 -10 0 -12 7 -8 23 3
12 6 51 6 87 0 61 1 63 18 47 14 -15 15 -19 3 -26z m-1554 10 c1 -11 -7 -27
-17 -36 -18 -16 -18 -15 -15 17 4 41 3 38 18 38 7 0 13 -9 14 -19z m119 6 c4
-4 2 -7 -5 -7 -7 0 -10 -4 -7 -9 11 -16 -25 -21 -47 -6 -14 10 -24 11 -33 4
-9 -8 -11 -6 -8 8 4 14 15 18 49 18 24 -1 47 -4 51 -8z m-188 -9 c15 -15 16
-38 2 -38 -5 0 -10 8 -11 18 0 14 -2 14 -9 -3 -8 -18 -9 -18 -10 5 -2 24 -3
23 -10 -5 l-8 -30 -1 33 c-1 25 3 32 17 32 10 0 23 -5 30 -12z m1002 -18 c0
-10 -9 -20 -20 -23 -22 -6 -23 -3 -14 30 7 25 34 20 34 -7z m-757 13 c-7 -2
-21 -2 -30 0 -10 3 -4 5 12 5 17 0 24 -2 18 -5z m-16 -19 c-3 -3 -12 -4 -19
-1 -8 3 -5 6 6 6 11 1 17 -2 13 -5z m332 -11 c0 -10 -3 -13 -5 -7 -3 6 -25 9
-54 7 -28 -1 -50 2 -50 7 0 6 25 10 55 10 46 0 55 -3 54 -17z m341 -14 c0 -23
4 -30 18 -28 31 3 43 -1 37 -11 -3 -6 -17 -7 -31 -4 -23 6 -24 4 -24 -37 0
-53 -12 -333 -14 -336 -1 -1 -36 1 -79 4 -69 5 -76 8 -65 22 10 13 10 14 -2 4
-8 -7 -27 -13 -42 -13 -25 0 -28 4 -28 31 0 24 4 29 18 25 9 -3 53 -6 97 -8
l80 -2 6 -31 c4 -16 7 38 8 121 l1 150 -47 -6 c-27 -3 -60 -14 -74 -23 -14 -9
-29 -14 -32 -10 -4 3 -7 0 -8 -8 -1 -8 -5 -3 -9 11 l-8 25 -1 -27 c-1 -15 -5
-30 -11 -33 -6 -4 -10 15 -10 49 l0 54 105 -5 c74 -4 105 -2 105 6 0 6 -13 11
-30 11 -17 0 -30 5 -31 13 0 10 -2 10 -6 0 -7 -18 -23 -16 -23 1 0 8 -4 17 -9
20 -5 4 -7 -4 -4 -16 4 -19 3 -20 -6 -8 -7 10 -11 11 -11 3 0 -9 -16 -13 -45
-13 l-45 0 0 45 0 45 83 0 c57 0 89 -5 104 -15 20 -14 21 -13 16 5 -3 11 0 20
6 20 6 0 11 -14 11 -31z m767 25 c-3 -3 -12 -4 -19 -1 -8 3 -5 6 6 6 11 1 17
-2 13 -5z m-297 -8 c0 -15 -14 -35 -21 -30 -15 9 -10 34 6 34 8 0 15 -2 15 -4z
m44 -17 c-7 -11 -34 -12 -34 -1 0 14 11 21 26 15 8 -3 11 -9 8 -14z m-364 1
c0 -5 -9 -10 -21 -10 -11 0 -17 5 -14 10 3 6 13 10 21 10 8 0 14 -4 14 -10z
m90 -2 c0 -11 -28 -10 -35 1 -3 6 4 9 15 8 11 -1 20 -5 20 -9z m52 -5 c12 -17
25 -19 126 -22 12 -1 22 -7 22 -15 0 -12 -17 -14 -87 -11 -49 2 -94 4 -100 5
-21 0 -15 20 5 20 28 0 34 11 14 26 -9 8 -12 14 -5 14 6 0 18 -8 25 -17z
m-855 -19 c-3 -3 -12 -4 -19 -1 -8 3 -5 6 6 6 11 1 17 -2 13 -5z m763 -15 c0
-5 -10 -9 -21 -9 -18 0 -19 2 -9 15 12 15 30 12 30 -6z m280 3 c0 -10 -7 -19
-15 -19 -27 0 -18 27 13 36 1 1 2 -7 2 -17z m-255 -1 c3 -5 1 -12 -5 -16 -5
-3 -10 1 -10 9 0 18 6 21 15 7z m-811 -32 c-8 -14 -24 -10 -24 6 0 9 6 12 15
9 8 -4 12 -10 9 -15z m1146 7 c0 -2 -7 -7 -16 -10 -8 -3 -12 -2 -9 4 6 10 25
14 25 6z m-590 -96 c0 -28 -2 -30 -40 -30 -31 0 -38 3 -34 15 4 8 1 15 -5 15
-6 0 -11 -7 -11 -15 0 -10 -11 -15 -35 -15 -19 0 -35 2 -35 5 0 12 98 54 128
55 29 0 32 -3 32 -30z m250 -20 c0 -19 -7 -20 -105 -20 -58 0 -105 4 -105 8 0
24 30 32 117 32 86 0 93 -1 93 -20z m590 -10 c0 -18 -7 -20 -65 -20 -58 0 -65
2 -65 20 0 18 7 20 65 20 58 0 65 -2 65 -20z m-919 -27 c0 -16 1 -15 8 2 8 19
8 19 19 0 9 -17 11 -17 12 -3 0 10 7 15 18 14 13 -2 17 -13 17 -52 0 -46 -2
-49 -25 -48 -47 3 -49 4 -44 19 4 8 1 15 -5 15 -6 0 -11 -7 -11 -15 0 -11 -12
-15 -48 -15 -27 0 -51 2 -53 4 -2 3 -3 25 -1 50 l4 46 54 0 c44 0 54 -3 55
-17z m737 -23 c-1 -16 -5 -30 -10 -30 -9 0 -11 22 -2 44 9 24 13 19 12 -14z
m-977 -20 c23 0 29 -4 29 -21 0 -20 -4 -21 -46 -15 -26 3 -53 6 -60 6 -11 0
-10 5 4 19 9 11 23 17 30 15 8 -2 27 -4 43 -4z m569 -32 c0 -23 -2 -23 -109
-20 -102 3 -108 4 -104 23 5 17 15 19 109 19 101 0 104 -1 104 -22z m-254 -39
c5 -9 -19 -10 -90 -6 -54 3 -100 8 -103 11 -4 3 37 6 90 6 61 0 98 -4 103 -11z
m651 -11 c-3 -8 -6 -5 -6 6 -1 11 2 17 5 13 3 -3 4 -12 1 -19z m-1007 2 c0
-12 -30 -12 -85 -1 -38 8 -37 9 23 10 35 1 62 -3 62 -9z m1148 -3 c6 3 12 -1
12 -8 0 -7 6 -5 15 7 16 21 16 20 20 -13 2 -22 -1 -23 -66 -23 -44 0 -69 4
-69 11 0 6 7 9 15 5 10 -4 15 1 15 14 0 16 4 18 23 11 12 -4 28 -6 35 -4z
m-1004 -30 c1 -15 -4 -27 -11 -27 -6 0 -10 9 -8 20 2 11 -1 20 -6 20 -6 0 -7
5 -4 11 12 18 28 4 29 -24z m354 6 c-21 -2 -55 -2 -75 0 -21 2 -4 4 37 4 41 0
58 -2 38 -4z m212 -38 c0 -42 10 -40 -182 -23 -93 8 -138 16 -138 24 0 16 34
21 130 19 46 -1 76 2 68 6 -8 5 15 9 55 9 l67 0 0 -35z m39 26 c9 -6 10 -11 2
-15 -6 -4 -9 -12 -6 -17 9 -14 25 -11 25 5 0 18 31 22 133 18 70 -3 77 -5 77
-24 0 -18 -5 -20 -32 -15 -18 3 -28 3 -22 1 7 -3 10 -14 7 -24 -3 -11 0 -20 6
-20 5 0 8 6 5 13 -3 8 2 14 11 14 9 0 15 -9 15 -24 0 -20 -5 -23 -42 -23 -48
0 -88 9 -88 19 1 31 50 36 50 5 0 -8 4 -14 10 -14 13 0 9 48 -5 53 -8 3 -91 2
-118 -2 -5 -1 -5 -6 -1 -13 5 -8 2 -9 -10 -5 -10 4 -24 7 -32 7 -9 0 -14 11
-14 35 0 36 5 41 29 26z m-729 -47 c0 -8 -9 -14 -19 -14 -25 0 -35 27 -13 33
22 5 32 -1 32 -19z m227 0 c-3 -3 -12 -4 -19 -1 -8 3 -5 6 6 6 11 1 17 -2 13
-5z m328 -44 c3 -6 -4 -10 -17 -10 -18 0 -20 2 -8 10 19 12 18 12 25 0z m435
-30 c0 -5 -2 -10 -4 -10 -3 0 -8 5 -11 10 -3 6 -1 10 4 10 6 0 11 -4 11 -10z
m-152 -7 c-4 -11 6 -13 60 -11 l47 1 -50 7 -50 7 53 1 52 2 0 -34 0 -34 -47 6
c-27 3 -51 10 -55 16 -5 8 -8 7 -8 -1 0 -7 -4 -13 -10 -13 -5 0 -10 14 -10 30
0 17 5 30 10 30 6 0 9 -3 8 -7z m308 -32 c-4 -5 0 -12 6 -14 8 -3 6 -6 -4 -6
-10 -1 -18 6 -18 14 0 8 5 15 11 15 5 0 8 -4 5 -9z m-313 -123 c-8 -85 -14
-87 -12 -5 1 37 6 67 10 67 5 0 6 -28 2 -62z m247 -96 c0 -5 -7 -9 -15 -9 -8
0 -15 4 -15 9 0 4 7 8 15 8 8 0 15 -4 15 -8z"/>
<path d="M1570 1540 c0 -5 4 -10 9 -10 6 0 13 5 16 10 3 6 -1 10 -9 10 -9 0
-16 -4 -16 -10z"/>
<path d="M1960 1229 c0 -5 5 -7 10 -4 6 3 10 8 10 11 0 2 -4 4 -10 4 -5 0 -10
-5 -10 -11z"/>
<path d="M1930 1119 c0 -5 5 -7 10 -4 6 3 10 8 10 11 0 2 -4 4 -10 4 -5 0 -10
-5 -10 -11z"/>
<path d="M2075 1110 c3 -5 8 -10 11 -10 2 0 4 5 4 10 0 6 -5 10 -11 10 -5 0
-7 -4 -4 -10z"/>
<path d="M1992 1094 c-12 -8 -26 -13 -30 -10 -5 3 -9 -1 -9 -9 0 -20 7 -19 37
5 33 26 48 25 53 -2 4 -20 4 -19 6 5 1 32 -21 36 -57 11z"/>
<path d="M1931 1084 c0 -11 3 -14 6 -6 3 7 2 16 -1 19 -3 4 -6 -2 -5 -13z"/>
<path d="M2278 1053 c6 -2 18 -2 25 0 6 3 1 5 -13 5 -14 0 -19 -2 -12 -5z"/>
<path d="M2350 960 c0 -13 11 -13 30 0 12 8 11 10 -7 10 -13 0 -23 -4 -23 -10z"/>
<path d="M2393 955 c-9 -10 -7 -14 10 -19 27 -7 35 1 16 18 -12 12 -16 12 -26
1z"/>
<path d="M2658 813 c6 -2 18 -2 25 0 6 3 1 5 -13 5 -14 0 -19 -2 -12 -5z"/>
<path d="M1466 1902 c-2 -4 -1 -14 4 -22 7 -11 9 -9 7 8 -1 24 -3 26 -11 14z"/>
<path d="M1196 1892 c-3 -5 1 -9 9 -9 8 0 12 4 9 9 -3 4 -7 8 -9 8 -2 0 -6 -4
-9 -8z"/>
<path d="M1426 1881 c-4 -5 0 -12 6 -15 7 -3 4 -4 -8 -1 -22 6 -63 -29 -50
-43 4 -4 13 0 19 8 13 16 62 26 53 11 -3 -5 1 -11 9 -15 8 -3 15 -1 15 4 0 6
11 10 24 10 23 0 25 -5 31 -67 9 -103 12 -113 14 -51 1 47 4 58 21 63 16 5 18
12 13 38 -11 58 -22 65 -23 13 0 -27 -3 -46 -7 -42 -4 3 -6 28 -6 54 1 37 0
42 -7 22 -4 -14 -9 -18 -9 -10 -1 9 -4 11 -9 5 -13 -20 -54 -15 -59 6 -6 20
-18 25 -27 10z"/>
<path d="M1130 1806 c0 -2 7 -9 15 -16 9 -7 15 -8 15 -2 0 5 -7 12 -15 16 -8
3 -15 4 -15 2z"/>
<path d="M1400 1741 c0 -6 -7 -8 -15 -5 -8 4 -15 1 -15 -5 0 -13 36 -15 45 -2
3 5 1 12 -5 16 -5 3 -10 2 -10 -4z"/>
<path d="M1555 1720 c3 -5 8 -10 11 -10 2 0 4 5 4 10 0 6 -5 10 -11 10 -5 0
-7 -4 -4 -10z"/>
<path d="M2163 1723 c-16 -3 -23 -11 -23 -26 1 -20 2 -20 11 -4 5 9 17 17 24
17 8 0 15 5 15 10 0 6 -1 9 -2 9 -2 -1 -13 -4 -25 -6z"/>
<path d="M2237 1696 c-4 -10 -3 -14 2 -11 6 3 14 -3 20 -12 6 -10 11 -13 11
-7 0 5 -6 18 -13 28 -13 17 -14 18 -20 2z"/>
<path d="M1376 1685 c4 -8 8 -15 10 -15 2 0 4 7 4 15 0 8 -4 15 -10 15 -5 0
-7 -7 -4 -15z"/>
<path d="M540 1686 c0 -9 30 -14 35 -6 4 6 -3 10 -14 10 -12 0 -21 -2 -21 -4z"/>
<path d="M1808 1683 c7 -3 16 -2 19 1 4 3 -2 6 -13 5 -11 0 -14 -3 -6 -6z"/>
<path d="M1960 1685 c0 -7 30 -13 34 -7 3 4 -4 9 -15 9 -10 1 -19 0 -19 -2z"/>
<path d="M1998 1668 c-21 -21 -11 -24 15 -4 10 8 15 16 10 18 -4 3 -16 -3 -25
-14z"/>
<path d="M1780 1670 c0 -6 7 -10 15 -10 8 0 15 2 15 4 0 2 -7 6 -15 10 -8 3
-15 1 -15 -4z"/>
<path d="M580 1660 c0 -5 5 -10 11 -10 5 0 7 5 4 10 -3 6 -8 10 -11 10 -2 0
-4 -4 -4 -10z"/>
<path d="M545 1650 c3 -5 11 -10 16 -10 6 0 7 5 4 10 -3 6 -11 10 -16 10 -6 0
-7 -4 -4 -10z"/>
<path d="M661 1646 c-13 -16 -5 -66 11 -66 5 0 6 5 3 10 -3 6 1 10 9 10 20 0
16 -23 -4 -32 -10 -4 -7 -7 11 -7 14 -1 29 -4 33 -8 19 -19 44 -2 59 39 15 42
-92 90 -122 54z m99 -29 c0 -8 -15 -11 -45 -9 -25 2 -45 9 -45 14 0 6 14 8 30
6 17 -3 33 -1 36 4 7 11 24 0 24 -15z m0 -38 c0 -10 -12 -11 -34 -3 -25 10
-19 22 9 16 14 -2 25 -8 25 -13z"/>
<path d="M1910 1641 c0 -6 4 -13 10 -16 6 -3 7 1 4 9 -7 18 -14 21 -14 7z"/>
<path d="M2210 1646 c0 -2 14 -6 30 -8 17 -3 30 -1 30 4 0 4 -13 8 -30 8 -16
0 -30 -2 -30 -4z"/>
<path d="M2279 1638 c0 -7 -2 -20 -4 -29 -1 -9 1 -22 5 -30 6 -8 9 3 8 29 0
38 -7 60 -9 30z"/>
<path d="M1708 1633 c6 -2 18 -2 25 0 6 3 1 5 -13 5 -14 0 -19 -2 -12 -5z"/>
<path d="M2151 1624 c0 -11 3 -14 6 -6 3 7 2 16 -1 19 -3 4 -6 -2 -5 -13z"/>
<path d="M1375 1620 c-3 -5 -2 -10 4 -10 5 0 13 5 16 10 3 6 2 10 -4 10 -5 0
-13 -4 -16 -10z"/>
<path d="M1868 1613 c6 -2 18 -2 25 0 6 3 1 5 -13 5 -14 0 -19 -2 -12 -5z"/>
<path d="M2210 1592 c0 -15 -6 -34 -12 -41 -11 -11 -10 -13 5 -7 10 3 20 6 22
6 2 0 1 10 -2 21 -4 15 0 27 12 35 18 13 18 14 -3 14 -17 0 -22 -6 -22 -28z"/>
<path d="M1935 1599 c-7 -10 38 -20 49 -9 4 4 16 6 25 3 9 -4 13 -2 8 3 -10
11 -76 14 -82 3z"/>
<path d="M2825 1594 c-38 -28 8 -74 75 -74 20 0 35 -8 49 -28 28 -40 22 -66
-18 -70 l-32 -3 21 -19 c12 -11 29 -16 38 -13 13 5 11 0 -5 -19 -25 -26 -29
-43 -13 -53 6 -4 7 1 3 11 -5 14 -1 16 23 12 28 -4 30 -2 31 29 1 18 -3 33 -8
33 -5 0 -4 9 3 19 9 15 8 22 -5 36 -20 20 -22 26 -4 19 9 -3 13 8 13 40 1 33
-2 43 -12 39 -20 -8 -114 -9 -114 -2 0 4 6 12 14 18 11 9 16 9 21 0 6 -8 10
-7 17 2 8 11 11 11 15 1 4 -10 8 -10 21 0 8 7 17 12 19 11 9 -7 23 -2 23 10 0
17 -152 18 -175 1z m40 -14 c3 -6 -1 -13 -10 -16 -19 -8 -30 0 -20 15 8 14 22
14 30 1z m115 -80 c0 -5 -4 -10 -10 -10 -5 0 -10 5 -10 10 0 6 5 10 10 10 6 0
10 -4 10 -10z"/>
<path d="M2151 1584 c0 -11 3 -14 6 -6 3 7 2 16 -1 19 -3 4 -6 -2 -5 -13z"/>
<path d="M2155 1550 c-3 -5 -2 -10 4 -10 5 0 13 5 16 10 3 6 2 10 -4 10 -5 0
-13 -4 -16 -10z"/>
<path d="M1940 1541 c0 -6 8 -9 18 -9 9 0 23 -1 31 -3 7 -2 16 2 18 9 3 8 -7
12 -31 12 -20 0 -36 -4 -36 -9z"/>
<path d="M2230 1540 c-12 -8 -11 -10 8 -10 12 0 22 5 22 10 0 13 -11 13 -30 0z"/>
<path d="M691 1498 c0 -16 -5 -28 -11 -28 -5 0 -9 -11 -8 -24 1 -14 5 -24 8
-24 26 2 32 -3 20 -17 -10 -12 -9 -15 4 -15 10 0 14 5 11 10 -3 6 -1 10 4 10
6 0 11 -9 11 -20 0 -11 -5 -20 -12 -20 -6 0 -8 -3 -5 -7 12 -11 85 -14 92 -3
4 6 -5 10 -23 10 -34 0 -43 7 -35 26 5 13 8 13 27 1 12 -8 40 -14 64 -12 30 1
42 -2 42 -11 0 -9 11 -14 33 -13 30 1 30 2 7 8 l-25 7 23 6 c15 4 25 2 29 -8
3 -8 14 -14 24 -14 18 0 18 1 2 18 -10 11 -28 17 -40 15 -17 -2 -24 3 -29 22
-6 24 -44 37 -44 15 0 -5 3 -9 8 -7 4 1 9 -2 12 -8 3 -6 -13 -11 -37 -12 -29
-1 -43 3 -43 12 0 9 -13 11 -45 9 -28 -3 -45 0 -45 6 0 6 -4 8 -10 5 -5 -3
-10 3 -10 15 0 20 1 20 28 4 24 -14 25 -14 8 0 -15 12 -16 16 -5 16 8 0 21 -6
28 -12 7 -8 5 3 -5 25 -19 40 -35 50 -29 17 2 -11 0 -20 -5 -20 -5 0 -11 10
-13 23 -4 19 -4 18 -6 -5z"/>
<path d="M1400 1509 c0 -5 5 -7 11 -3 6 3 15 0 20 -7 7 -11 9 -10 9 4 0 10 -8
17 -20 17 -11 0 -20 -5 -20 -11z"/>
<path d="M1030 1499 c0 -5 7 -9 16 -9 8 0 13 -4 10 -9 -3 -4 6 -6 19 -3 18 3
25 0 25 -11 0 -8 10 -17 22 -20 28 -8 38 2 15 14 -9 6 -17 15 -17 22 0 7 4 6
10 -3 5 -8 12 -11 17 -7 13 14 -21 27 -51 21 -16 -3 -26 -2 -23 2 3 5 -6 10
-19 10 -13 1 -24 -2 -24 -7z"/>
<path d="M2830 1503 c0 -15 18 -35 27 -32 5 2 1 12 -9 22 -10 9 -18 14 -18 10z"/>
<path d="M1300 1490 c0 -13 18 -22 24 -11 3 5 -1 11 -9 15 -8 3 -15 1 -15 -4z"/>
<path d="M870 1473 c0 -10 4 -14 8 -8 4 6 11 13 16 18 5 4 2 7 -7 7 -10 0 -17
-8 -17 -17z"/>
<path d="M912 1460 c0 -19 2 -27 5 -17 2 9 2 25 0 35 -3 9 -5 1 -5 -18z"/>
<path d="M1376 1478 c3 -5 10 -6 15 -3 13 9 11 12 -6 12 -8 0 -12 -4 -9 -9z"/>
<path d="M2024 1482 c5 -8 -5 -12 -33 -12 -23 0 -41 -4 -41 -10 0 -5 16 -8 35
-6 41 3 64 19 44 31 -8 5 -10 4 -5 -3z"/>
<path d="M311 1467 c-6 -6 -11 -18 -11 -26 1 -14 3 -13 14 2 7 9 15 17 18 17
10 0 4 -65 -6 -73 -6 -5 -1 -5 12 -2 12 3 22 3 22 0 0 -7 -26 -35 -33 -35 -12
0 -16 34 -6 47 16 18 2 30 -19 17 -20 -13 -27 -38 -16 -62 4 -9 7 -20 6 -23
-1 -4 14 -9 33 -11 19 -2 35 -1 35 3 0 4 8 10 18 13 10 3 18 15 19 26 1 11 -2
18 -7 15 -13 -8 -43 53 -37 75 5 21 -25 34 -42 17z m69 -117 c0 -5 -4 -10 -10
-10 -5 0 -10 5 -10 10 0 6 5 10 10 10 6 0 10 -4 10 -10z"/>
<path d="M100 1451 c-16 -30 -12 -51 9 -51 11 0 23 -5 26 -10 10 -17 25 -1 25
27 0 23 -23 52 -42 53 -4 0 -12 -9 -18 -19z m21 -5 c-10 -12 -8 -15 11 -19 20
-4 20 -4 -4 -6 -16 0 -28 1 -28 3 0 14 14 36 22 36 6 0 6 -6 -1 -14z"/>
<path d="M515 1460 c3 -5 2 -10 -3 -10 -5 0 -7 -11 -4 -25 l4 -24 18 22 c13
16 15 26 8 35 -12 14 -32 16 -23 2z m25 -14 c0 -3 -4 -8 -10 -11 -5 -3 -10 -1
-10 4 0 6 5 11 10 11 6 0 10 -2 10 -4z"/>
<path d="M592 1461 c-8 -5 -12 -17 -10 -27 2 -15 5 -13 15 9 14 30 14 30 -5
18z"/>
<path d="M846 1453 c-6 -14 -5 -15 5 -6 7 7 10 15 7 18 -3 3 -9 -2 -12 -12z"/>
<path d="M2925 1459 c-4 -6 -5 -12 -2 -15 2 -3 7 2 10 11 7 17 1 20 -8 4z"/>
<path d="M980 1386 c0 -9 30 -14 35 -6 4 6 -3 10 -14 10 -12 0 -21 -2 -21 -4z"/>
<path d="M168 1373 c7 -3 16 -2 19 1 4 3 -2 6 -13 5 -11 0 -14 -3 -6 -6z"/>
<path d="M445 1370 c-17 -7 -17 -9 -2 -9 9 -1 17 -5 17 -10 0 -10 30 -19 47
-14 8 3 7 10 -5 24 -18 21 -27 22 -57 9z"/>
<path d="M823 1368 c4 -13 25 -18 41 -10 10 5 -14 22 -32 22 -8 0 -12 -6 -9
-12z"/>
<path d="M1602 1341 c-11 -7 -11 -9 1 -14 9 -3 18 1 21 9 6 16 -2 18 -22 5z"/>
<path d="M216 1331 c-4 -7 -5 -15 -2 -18 9 -9 19 4 14 18 -4 11 -6 11 -12 0z"/>
<path d="M243 1326 c0 -8 6 -12 14 -9 7 3 13 9 13 14 0 5 -6 9 -13 9 -8 0 -14
-6 -14 -14z"/>
<path d="M1256 1318 c3 -5 10 -6 15 -3 13 9 11 12 -6 12 -8 0 -12 -4 -9 -9z"/>
<path d="M1315 1307 c0 -17 5 -23 17 -19 15 4 15 5 0 23 -9 10 -17 19 -17 19
0 0 0 -11 0 -23z"/>
<path d="M1435 1310 c4 -6 11 -8 16 -5 14 9 11 15 -7 15 -8 0 -12 -5 -9 -10z"/>
<path d="M1471 1304 c0 -11 3 -14 6 -6 3 7 2 16 -1 19 -3 4 -6 -2 -5 -13z"/>
<path d="M1779 1313 c-1 -5 -1 -11 0 -15 2 -13 -137 -9 -141 4 -2 6 -10 8 -16
4 -29 -18 -6 -26 77 -26 84 0 90 1 88 20 -1 20 -6 27 -8 13z"/>
<path d="M300 1300 c0 -5 7 -10 15 -10 8 0 15 5 15 10 0 6 -7 10 -15 10 -8 0
-15 -4 -15 -10z"/>
<path d="M2950 1284 c0 -8 -4 -12 -10 -9 -5 3 -10 0 -10 -8 0 -10 11 -15 34
-15 29 0 34 3 34 24 0 19 -6 24 -24 24 -15 0 -24 -6 -24 -16z"/>
<path d="M1370 1281 c0 -6 5 -13 12 -17 6 -4 8 -3 4 4 -3 5 0 13 6 15 8 3 6 6
-4 6 -10 1 -18 -3 -18 -8z"/>
<path d="M1420 1280 c-13 -8 -12 -12 4 -27 13 -12 16 -13 8 -2 -9 12 -9 18 0
27 14 14 9 15 -12 2z"/>
<path d="M1266 1257 c3 -10 9 -15 12 -12 3 3 0 11 -7 18 -10 9 -11 8 -5 -6z"/>
<path d="M1451 1254 c0 -11 3 -14 6 -6 3 7 2 16 -1 19 -3 4 -6 -2 -5 -13z"/>
<path d="M2206 1260 c5 -5 55 -11 111 -13 56 -3 106 -8 112 -11 5 -4 12 -2 16
3 3 6 12 8 20 4 8 -3 15 0 15 6 0 6 -19 11 -47 11 -27 0 -90 2 -142 4 -52 3
-90 1 -85 -4z"/>
<path d="M370 1246 c0 -2 7 -7 16 -10 8 -3 12 -2 9 4 -6 10 -25 14 -25 6z"/>
<path d="M802 1228 c8 -21 -17 -45 -27 -27 -6 8 -10 7 -16 -4 -12 -20 -1 -47
19 -47 13 0 13 -2 -3 -14 -16 -12 -13 -14 35 -20 49 -6 82 1 52 11 -10 4 -9 8
5 18 15 11 16 15 3 31 -9 11 -10 15 -2 10 6 -4 12 -2 12 3 0 6 -4 11 -10 11
-5 0 -10 6 -10 14 0 8 -4 18 -10 21 -6 3 -7 -1 -4 -9 8 -21 -10 -20 -32 2 -16
15 -17 15 -12 0z m46 -54 c1 -10 -2 -25 -7 -33 -8 -12 -12 -12 -25 2 -19 19
-20 29 -4 45 16 16 32 10 36 -14z m-68 6 c0 -5 -4 -10 -10 -10 -5 0 -10 5 -10
10 0 6 5 10 10 10 6 0 10 -4 10 -10z"/>
<path d="M1150 1230 c-8 -5 -12 -12 -9 -15 4 -3 12 1 19 10 14 17 11 19 -10 5z"/>
<path d="M1731 1227 c-12 -6 -21 -19 -20 -31 0 -12 3 -15 6 -8 3 7 23 12 49
12 37 0 44 -3 44 -20 0 -22 -11 -24 -72 -14 -33 6 -38 10 -38 33 l0 27 -105
-2 c-106 -1 -161 -13 -69 -15 160 -3 164 -3 164 -21 0 -16 -11 -18 -94 -18
-66 0 -96 4 -99 13 -3 7 -6 5 -6 -5 -1 -10 0 -18 2 -18 1 -1 43 -3 92 -6 50
-3 118 -9 153 -13 47 -6 65 -4 73 6 6 7 15 10 19 8 13 -8 5 42 -9 58 -15 19
-62 26 -90 14z"/>
<path d="M2633 1219 c3 -11 -1 -26 -9 -34 -9 -8 -10 -16 -4 -20 5 -3 10 -1 10
5 0 6 4 9 9 6 10 -6 25 10 34 35 4 12 -1 18 -20 22 -20 4 -24 1 -20 -14z m27
-23 c0 -3 -4 -8 -10 -11 -5 -3 -10 -1 -10 4 0 6 5 11 10 11 6 0 10 -2 10 -4z"/>
<path d="M1451 1205 c-1 -16 -5 -35 -9 -41 -10 -16 -92 -15 -86 1 3 6 -2 12
-10 12 -8 0 -12 -6 -9 -14 3 -8 -3 -13 -16 -13 -28 0 -37 -25 -17 -45 17 -18
22 -45 7 -45 -5 0 -12 8 -14 18 -3 9 -4 5 -4 -9 1 -24 5 -27 46 -27 35 -1 49
-7 63 -24 l17 -23 -6 25 c-4 14 -13 30 -21 36 -17 12 -12 47 8 56 8 4 -9 7
-37 7 -32 1 -53 5 -53 12 0 7 14 10 35 7 19 -2 35 -1 35 2 0 3 16 4 35 2 31
-4 36 -1 45 24 8 19 8 35 1 49 -9 18 -10 17 -10 -10z m-98 -136 c-3 -10 -10
-19 -16 -19 -6 0 -7 3 -4 6 3 4 2 15 -3 24 -8 15 -6 17 9 13 13 -3 17 -11 14
-24z"/>
<path d="M3 1179 c-1 -38 0 -39 35 -40 l37 -2 -35 -7 c-29 -5 -32 -8 -16 -15
17 -7 17 -9 -5 -21 -13 -7 -19 -13 -12 -14 22 0 43 12 43 26 0 17 105 20 115
4 3 -5 13 -10 21 -10 8 0 14 5 14 10 0 6 -7 10 -15 10 -8 0 -15 5 -15 12 0 6
3 8 7 5 3 -4 13 -1 21 6 13 10 14 5 8 -48 -4 -38 -3 -56 3 -50 5 6 11 24 13
40 3 26 8 31 38 36 19 4 28 7 20 8 -13 1 -13 2 0 11 8 5 12 10 7 10 -4 0 -16
-5 -27 -12 -16 -10 -23 -9 -41 7 -22 21 -59 21 -71 1 -6 -8 -11 -7 -18 4 -8
13 -10 12 -10 -3 0 -10 -5 -15 -10 -12 -7 4 -7 12 0 24 7 14 5 23 -10 36 -10
9 -23 14 -28 11 -5 -3 -22 -2 -38 3 -28 8 -29 7 -31 -30z m59 -6 c17 -15 18
-15 18 1 0 9 4 15 10 11 22 -13 -3 -35 -41 -35 -37 0 -39 2 -29 20 13 24 18
25 42 3z"/>
<path d="M630 1190 c-9 -17 -8 -20 10 -20 11 0 20 -6 20 -12 0 -20 20 14 20
35 0 24 -37 22 -50 -3z m40 0 c0 -5 -4 -10 -10 -10 -5 0 -10 5 -10 10 0 6 5
10 10 10 6 0 10 -4 10 -10z"/>
<path d="M2498 1185 c-20 -44 35 -79 80 -51 8 5 11 -1 10 -18 -2 -20 -7 -24
-33 -23 -16 0 -39 -3 -49 -8 -15 -6 -17 -5 -11 5 5 9 4 11 -3 6 -9 -5 -9 -13
-2 -27 6 -10 8 -19 4 -19 -3 0 -1 -7 6 -15 6 -8 9 -19 5 -25 -3 -5 1 -10 10
-10 9 0 13 5 10 10 -8 13 18 13 32 -1 8 -8 14 -2 24 20 14 30 34 45 23 17 -4
-9 0 -14 10 -12 24 3 32 16 16 27 -13 8 -13 10 0 19 12 8 11 10 -6 10 -18 0
-21 5 -19 32 2 18 -3 45 -11 60 -12 23 -21 28 -49 28 -28 0 -38 -5 -47 -25z
m82 -18 c0 -20 -4 -23 -35 -19 -25 3 -35 9 -35 21 0 13 9 18 35 19 30 1 35 -2
35 -21z m0 -114 c0 -19 -5 -22 -35 -21 -30 1 -35 5 -35 25 0 20 4 23 35 20 29
-2 35 -6 35 -24z"/>
<path d="M996 1185 c-10 -8 -23 -12 -29 -8 -6 4 -7 1 -3 -6 6 -8 2 -11 -10 -9
-11 2 -22 10 -26 18 -6 11 -7 10 -5 -5 2 -11 9 -19 15 -17 17 3 15 -13 -4 -29
-13 -10 -19 -10 -36 0 -11 7 -23 10 -26 7 -3 -3 0 -6 7 -6 7 0 11 -6 8 -14 -4
-9 1 -15 11 -15 9 0 34 -1 56 -2 21 0 42 4 46 11 6 10 9 9 12 -1 4 -12 87 -15
133 -4 11 3 14 2 8 -1 -7 -3 -13 -12 -13 -21 0 -13 -17 -14 -127 -8 -71 4
-135 11 -143 15 -25 12 -87 21 -70 10 12 -8 11 -10 -8 -10 -13 0 -21 3 -19 8
3 4 -33 7 -78 7 -53 0 -76 -3 -62 -8 21 -8 43 -10 232 -22 55 -3 116 -8 135
-10 19 -2 91 -7 160 -11 113 -6 123 -5 111 10 -7 9 -21 16 -30 16 -14 0 -14
-2 -1 -10 11 -7 2 -9 -30 -9 -25 1 -37 3 -27 6 9 2 17 9 17 13 0 6 -11 6 -25
0 -30 -11 -32 -4 -5 25 l19 21 -69 -1 c-50 0 -70 -4 -70 -13 0 -10 -3 -10 -14
0 -12 11 -9 16 22 30 35 17 86 18 123 3 9 -3 22 1 30 11 10 13 10 16 1 10 -7
-4 -21 -4 -30 0 -27 11 -43 13 -36 3 9 -15 -13 -10 -30 7 -10 9 -16 11 -16 4
0 -6 -6 -10 -12 -7 -7 2 -24 -5 -38 -15 -23 -18 -25 -18 -37 -2 -10 14 -10 19
-1 25 7 5 10 10 8 13 -3 2 -14 -2 -24 -9z m4 -45 c0 -5 -9 -6 -20 -3 -11 3
-17 9 -15 14 7 10 35 1 35 -11z m-43 -32 c-3 -8 -6 -5 -6 6 -1 11 2 17 5 13 3
-3 4 -12 1 -19z"/>
<path d="M890 1179 c0 -5 5 -7 10 -4 6 3 10 8 10 11 0 2 -4 4 -10 4 -5 0 -10
-5 -10 -11z"/>
<path d="M2706 1182 c-2 -4 -1 -14 5 -22 7 -12 9 -10 9 8 0 23 -5 28 -14 14z"/>
<path d="M458 1168 c4 -4 21 -3 37 1 30 9 30 9 -7 8 -20 -1 -34 -5 -30 -9z"/>
<path d="M2678 1135 c3 -33 0 -45 -9 -45 -11 0 -11 -3 1 -10 13 -9 13 -12 -3
-21 -14 -8 -16 -14 -7 -24 9 -11 15 -12 25 -2 7 7 11 16 8 20 -3 4 1 14 7 22
10 12 10 19 -1 32 -8 9 -9 14 -2 10 8 -5 8 2 0 28 -14 48 -23 44 -19 -10z"/>
<path d="M430 1151 c0 -10 19 -25 25 -20 1 2 -3 10 -11 17 -8 7 -14 8 -14 3z"/>
<path d="M505 1140 c4 -6 11 -8 16 -5 14 9 11 15 -7 15 -8 0 -12 -5 -9 -10z"/>
<path d="M1100 1140 c0 -5 7 -10 16 -10 8 0 12 5 9 10 -3 6 -10 10 -16 10 -5
0 -9 -4 -9 -10z"/>
<path d="M2620 1139 c0 -5 5 -7 10 -4 6 3 10 8 10 11 0 2 -4 4 -10 4 -5 0 -10
-5 -10 -11z"/>
<path d="M306 1115 c4 -8 -3 -15 -18 -18 -21 -4 -21 -4 3 -6 29 -1 47 24 24
33 -9 3 -12 0 -9 -9z"/>
<path d="M356 1115 c3 -8 12 -11 20 -8 14 5 20 -13 6 -19 -5 -1 -5 -14 -1 -28
l7 -25 1 28 c1 15 6 27 11 27 21 0 9 19 -19 28 -24 9 -29 8 -25 -3z"/>
<path d="M540 1125 c0 -6 -16 -10 -35 -9 -19 1 -37 -2 -40 -7 -3 -4 4 -6 17
-4 12 3 26 -1 30 -8 4 -6 8 -7 8 -2 0 6 19 10 43 8 23 -1 31 1 17 4 -14 3 -28
10 -32 17 -4 6 -8 7 -8 1z"/>
<path d="M665 1120 c-5 -9 72 -6 81 3 5 4 -11 7 -34 6 -24 -2 -45 -6 -47 -9z"/>
<path d="M1433 1114 c9 -11 17 -29 17 -39 0 -10 -8 -24 -17 -31 -16 -12 -16
-13 8 -14 24 0 26 4 25 36 -1 27 -7 41 -26 52 -25 16 -25 16 -7 -4z"/>
<path d="M2640 1115 c0 -8 5 -15 10 -15 6 0 10 7 10 15 0 8 -4 15 -10 15 -5 0
-10 -7 -10 -15z"/>
<path d="M79 1090 c-1 -8 -1 -28 0 -43 1 -19 -3 -27 -11 -25 -8 3 -12 16 -10
31 4 33 -15 36 -27 5 -7 -18 -5 -25 10 -32 10 -5 19 -15 19 -21 0 -12 43 -12
84 1 12 4 16 2 12 -5 -4 -6 -2 -11 3 -11 6 0 11 7 11 15 0 8 8 15 18 15 14 0
15 2 2 10 -8 5 -17 5 -20 0 -3 -4 -21 -10 -40 -11 -34 -4 -35 -3 -38 36 -2 32
0 36 8 23 6 -10 20 -18 31 -18 11 0 18 4 14 10 -3 5 -12 7 -20 4 -9 -4 -12 0
-9 13 4 14 0 19 -15 19 -12 0 -22 -7 -22 -16z"/>
<path d="M2442 1101 c-10 -6 -9 -10 7 -14 14 -3 21 0 21 9 0 16 -9 18 -28 5z"/>
<path d="M150 1096 c0 -2 8 -10 18 -17 15 -13 16 -12 3 4 -13 16 -21 21 -21
13z"/>
<path d="M1210 1096 c0 -2 16 -6 35 -8 19 -2 35 0 35 4 0 4 -16 8 -35 8 -19 0
-35 -2 -35 -4z"/>
<path d="M1840 1090 c0 -5 7 -10 15 -10 8 0 15 5 15 10 0 6 -7 10 -15 10 -8 0
-15 -4 -15 -10z"/>
<path d="M428 1083 c7 -3 16 -2 19 1 4 3 -2 6 -13 5 -11 0 -14 -3 -6 -6z"/>
<path d="M475 1080 c-3 -5 -1 -10 4 -10 6 0 11 5 11 10 0 6 -2 10 -4 10 -3 0
-8 -4 -11 -10z"/>
<path d="M2815 1080 c-4 -6 17 -10 57 -10 44 0 59 3 48 10 -20 13 -97 13 -105
0z"/>
<path d="M240 1056 c0 -8 5 -18 10 -21 6 -3 10 3 10 14 0 12 -4 21 -10 21 -5
0 -10 -6 -10 -14z"/>
<path d="M685 1061 c-3 -5 -1 -12 5 -16 5 -3 10 -24 10 -46 0 -32 3 -39 20
-39 16 0 20 7 21 38 1 20 0 44 -1 51 -1 13 1 13 14 2 10 -8 16 -9 16 -3 0 7
10 8 30 2 18 -5 32 -5 35 1 4 5 -6 9 -22 10 -15 0 -40 3 -55 5 -16 3 -28 0
-28 -6 0 -5 -10 -10 -22 -9 -22 0 -22 1 -3 9 16 7 17 9 3 9 -9 1 -19 -3 -23
-8z m43 -56 c1 -13 -2 -26 -6 -29 -4 -2 -9 9 -10 25 -1 16 1 29 6 29 4 0 9
-11 10 -25z"/>
<path d="M284 1045 c3 -24 12 -26 40 -11 20 10 23 15 12 19 -8 3 -17 -1 -20
-9 -3 -8 -10 -14 -16 -14 -6 0 -9 4 -5 9 3 5 1 12 -4 15 -5 4 -8 -1 -7 -9z"/>
<path d="M450 1049 c0 -5 5 -7 10 -4 6 3 10 8 10 11 0 2 -4 4 -10 4 -5 0 -10
-5 -10 -11z"/>
<path d="M511 1018 c-1 -27 3 -48 7 -48 4 0 6 17 4 38 -5 58 -10 62 -11 10z"/>
<path d="M586 1048 c16 -7 19 -16 16 -44 -2 -19 0 -34 5 -34 5 0 7 14 5 32 -5
30 -4 31 27 25 18 -4 31 -2 31 3 0 6 -15 10 -32 10 -24 0 -29 3 -18 10 10 6 4
9 -20 8 -29 -1 -31 -3 -14 -10z"/>
<path d="M853 1035 c-6 -14 -7 -23 -2 -20 5 4 6 -9 3 -27 -5 -25 -4 -30 5 -22
7 6 11 29 9 52 -3 40 -3 41 -15 17z"/>
<path d="M410 1043 c0 -5 5 -15 10 -23 8 -12 10 -11 10 8 0 12 -4 22 -10 22
-5 0 -10 -3 -10 -7z"/>
<path d="M2380 1036 c0 -2 7 -6 15 -10 8 -3 15 -1 15 4 0 6 -7 10 -15 10 -8 0
-15 -2 -15 -4z"/>
<path d="M345 1020 c-3 -5 -1 -10 4 -10 6 0 11 5 11 10 0 6 -2 10 -4 10 -3 0
-8 -4 -11 -10z"/>
<path d="M770 995 c0 -19 4 -35 9 -35 5 0 11 16 13 35 3 24 0 35 -9 35 -8 0
-13 -13 -13 -35z"/>
<path d="M1014 1016 c-3 -8 -4 -23 -1 -33 3 -12 5 -8 6 10 0 15 5 27 10 27 5
0 12 -12 14 -27 l4 -28 2 28 c2 37 21 35 21 -3 l0 -30 -102 0 c-147 0 -113
-12 48 -16 75 -2 145 -6 156 -10 10 -3 26 0 35 8 12 9 15 9 9 1 -5 -9 0 -13
13 -13 15 0 19 5 14 16 -5 13 -19 15 -79 12 -64 -3 -71 -2 -60 12 27 32 6 60
-45 60 -25 0 -42 -5 -45 -14z m86 -27 c0 -10 -4 -19 -10 -19 -5 0 -10 12 -10
26 0 14 4 23 10 19 6 -3 10 -15 10 -26z"/>
<path d="M218 1013 c6 -2 18 -2 25 0 6 3 1 5 -13 5 -14 0 -19 -2 -12 -5z"/>
<path d="M640 997 c0 -8 7 -17 15 -21 8 -3 15 -3 15 0 0 3 -7 12 -15 20 -13
13 -15 13 -15 1z"/>
<path d="M280 996 c0 -2 7 -7 16 -10 8 -3 12 -2 9 4 -6 10 -25 14 -25 6z"/>
<path d="M335 990 c-3 -5 -1 -10 4 -10 6 0 11 5 11 10 0 6 -2 10 -4 10 -3 0
-8 -4 -11 -10z"/>
<path d="M370 990 c-9 -6 -10 -10 -3 -10 6 0 15 5 18 10 8 12 4 12 -15 0z"/>
<path d="M1362 983 c14 -17 38 -16 38 1 0 8 -9 13 -24 12 -18 -1 -22 -4 -14
-13z"/>
<path d="M1306 982 c-2 -4 -2 -12 2 -17 7 -10 10 -11 58 -13 14 -1 23 -6 19
-11 -3 -5 -1 -13 5 -16 6 -4 9 -1 8 7 -2 7 3 12 10 11 6 -2 12 2 12 7 0 6 -15
10 -34 10 -19 0 -41 7 -50 15 -17 17 -23 18 -30 7z"/>
<path d="M70 972 c0 -15 28 -23 36 -9 4 7 4 9 -1 5 -4 -4 -14 -3 -22 3 -8 7
-13 8 -13 1z"/>
<path d="M416 945 c4 -8 8 -15 10 -15 2 0 4 7 4 15 0 8 -4 15 -10 15 -5 0 -7
-7 -4 -15z"/>
<path d="M1258 953 c6 -2 18 -2 25 0 6 3 1 5 -13 5 -14 0 -19 -2 -12 -5z"/>
<path d="M596 935 c4 -8 8 -15 10 -15 2 0 4 7 4 15 0 8 -4 15 -10 15 -5 0 -7
-7 -4 -15z"/>
<path d="M725 940 c-19 -8 -19 -9 2 -9 12 -1 25 4 28 9 7 12 -2 12 -30 0z"/>
<path d="M1260 936 c0 -2 7 -6 15 -10 8 -3 15 -1 15 4 0 6 -7 10 -15 10 -8 0
-15 -2 -15 -4z"/>
<path d="M1120 904 c-22 -8 -28 -13 -15 -13 11 0 31 6 45 14 31 17 17 17 -30
-1z"/>
<path d="M1548 913 c7 -3 16 -2 19 1 4 3 -2 6 -13 5 -11 0 -14 -3 -6 -6z"/>
<path d="M485 900 c-3 -6 1 -7 9 -4 18 7 21 14 7 14 -6 0 -13 -4 -16 -10z"/>
<path d="M1180 900 c-17 -6 -2 -8 47 -7 40 1 67 5 60 9 -15 10 -74 9 -107 -2z"/>
<path d="M1878 903 c7 -3 16 -2 19 1 4 3 -2 6 -13 5 -11 0 -14 -3 -6 -6z"/>
<path d="M1910 889 c0 -5 5 -7 10 -4 6 3 10 8 10 11 0 2 -4 4 -10 4 -5 0 -10
-5 -10 -11z"/>
<path d="M1944 893 c4 -4 31 -11 59 -14 l52 -7 -50 0 c-70 0 -75 -1 -75 -11 0
-12 129 -5 144 8 6 5 27 11 46 14 22 2 12 5 -30 6 -36 1 -85 4 -109 7 -25 2
-41 1 -37 -3z"/>
<path d="M1380 881 c0 -5 -8 -12 -17 -14 -14 -4 -13 -5 3 -6 12 0 24 6 28 14
3 8 1 15 -4 15 -6 0 -10 -4 -10 -9z"/>
<path d="M2830 881 c0 -6 5 -13 10 -16 6 -3 10 1 10 9 0 9 -4 16 -10 16 -5 0
-10 -4 -10 -9z"/>
<path d="M1185 870 c-25 -11 1 -11 35 0 20 6 21 8 5 8 -11 0 -29 -3 -40 -8z"/>
<path d="M1698 871 c8 -4 13 -12 13 -17 -2 -13 41 -16 69 -5 22 8 22 10 5 11
-17 0 -17 2 -5 10 11 7 -1 10 -40 10 -34 0 -50 -4 -42 -9z m55 -8 c-7 -2 -19
-2 -25 0 -7 3 -2 5 12 5 14 0 19 -2 13 -5z"/>
<path d="M1883 865 c0 -8 4 -12 9 -9 4 3 8 9 8 15 0 5 -4 9 -8 9 -5 0 -9 -7
-9 -15z"/>
<path d="M1098 863 c12 -2 32 -2 45 0 12 2 2 4 -23 4 -25 0 -35 -2 -22 -4z"/>
<path d="M1408 863 c7 -3 16 -2 19 1 4 3 -2 6 -13 5 -11 0 -14 -3 -6 -6z"/>
<path d="M2098 863 c7 -3 16 -2 19 1 4 3 -2 6 -13 5 -11 0 -14 -3 -6 -6z"/>
<path d="M1333 845 c0 -8 4 -12 9 -9 5 3 6 10 3 15 -9 13 -12 11 -12 -6z"/>
<path d="M1174 842 c5 -9 104 -7 113 2 4 3 -22 6 -56 6 -34 0 -60 -4 -57 -8z"/>
<path d="M1383 843 c15 -2 37 -2 50 0 12 2 0 4 -28 4 -27 0 -38 -2 -22 -4z"/>
<path d="M2390 842 c-41 -7 -54 -38 -17 -45 l22 -4 -22 -2 c-21 -1 -34 -21
-14 -21 5 0 16 -3 25 -6 13 -5 16 1 16 29 0 19 6 37 13 40 20 7 4 13 -23 9z"/>
<path d="M985 830 c-3 -6 1 -7 9 -4 18 7 21 14 7 14 -6 0 -13 -4 -16 -10z"/>
<path d="M1995 820 c-3 -5 -1 -10 4 -10 6 0 11 5 11 10 0 6 -2 10 -4 10 -3 0
-8 -4 -11 -10z"/>
<path d="M2090 821 c0 -5 5 -13 10 -16 6 -3 10 -2 10 4 0 5 -4 13 -10 16 -5 3
-10 2 -10 -4z"/>
<path d="M2125 809 c-10 -30 0 -33 13 -4 6 14 7 25 2 25 -5 0 -12 -9 -15 -21z"/>
<path d="M2260 816 c0 -8 -5 -16 -12 -18 -8 -3 -6 -6 4 -10 11 -5 17 0 21 18
2 13 0 24 -4 24 -5 0 -9 -6 -9 -14z"/>
<path d="M1856 806 c3 -8 -2 -16 -10 -19 -13 -4 -13 -5 1 -3 19 1 32 36 14 36
-6 0 -8 -6 -5 -14z"/>
<path d="M1955 810 c3 -5 8 -10 11 -10 2 0 4 5 4 10 0 6 -5 10 -11 10 -5 0 -7
-4 -4 -10z"/>
<path d="M176 795 c-9 -26 -7 -32 5 -12 6 10 9 21 6 23 -2 3 -7 -2 -11 -11z"/>
<path d="M1350 792 c0 -12 3 -12 15 -2 12 10 15 10 15 -3 0 -8 -3 -23 -6 -32
-5 -13 -8 -14 -15 -3 -7 10 -9 9 -9 -5 0 -13 6 -18 23 -15 16 2 22 10 23 28 0
14 4 31 8 38 5 9 -1 12 -23 10 -19 -1 -31 -8 -31 -16z"/>
<path d="M1510 800 c0 -5 7 -7 15 -4 8 4 15 8 15 10 0 2 -7 4 -15 4 -8 0 -15
-4 -15 -10z"/>
<path d="M866 791 c-3 -5 1 -11 9 -15 9 -3 15 0 15 9 0 16 -16 20 -24 6z"/>
<path d="M1010 785 c0 -8 2 -15 4 -15 2 0 6 7 10 15 3 8 1 15 -4 15 -6 0 -10
-7 -10 -15z"/>
<path d="M1055 792 c-6 -4 -8 -23 -5 -42 l6 -35 5 43 c2 23 4 42 4 42 0 0 -5
-4 -10 -8z"/>
<path d="M1180 785 c0 -8 4 -15 9 -15 5 0 11 7 15 15 3 9 0 15 -9 15 -8 0 -15
-7 -15 -15z"/>
<path d="M1220 776 c0 -13 -3 -31 -6 -40 -3 -9 -2 -16 4 -16 5 0 12 18 14 40
2 22 0 40 -4 40 -5 0 -8 -11 -8 -24z"/>
<path d="M830 775 c0 -8 4 -15 8 -15 5 0 9 7 9 15 0 8 -4 15 -9 15 -4 0 -8 -7
-8 -15z"/>
<path d="M2096 776 c3 -9 13 -16 22 -16 8 0 13 1 11 3 -2 1 -12 9 -22 16 -15
12 -17 12 -11 -3z"/>
<path d="M2311 760 c-1 -19 -3 -51 -4 -70 l-2 -35 -65 1 c-36 1 -90 4 -120 8
-30 4 -77 9 -104 11 -27 2 -53 10 -57 17 -5 8 -9 9 -9 2 0 -7 -16 -10 -40 -9
-22 1 -43 -2 -46 -6 -3 -5 6 -9 19 -9 23 0 24 -3 19 -45 -3 -30 -1 -45 7 -45
6 0 11 19 11 46 0 43 2 46 23 40 12 -3 28 -6 35 -6 6 0 12 -7 12 -15 0 -10
-11 -15 -32 -16 -27 0 -29 -2 -13 -8 11 -5 25 -6 32 -4 7 3 36 -3 64 -12 40
-14 57 -15 70 -7 13 9 25 8 46 -3 15 -8 36 -12 45 -9 10 3 23 2 30 -3 13 -8
64 -13 146 -14 24 0 40 -4 37 -10 -8 -12 16 -12 35 1 8 5 19 5 25 1 15 -12 75
-19 81 -9 3 4 -1 8 -8 8 -10 0 -9 3 2 11 11 8 5 9 -22 4 -24 -4 -38 -2 -38 5
0 5 -12 10 -28 10 -39 0 -89 16 -108 34 -9 9 -20 14 -24 11 -5 -3 -11 32 -13
77 -1 46 -4 67 -6 48z m-237 -118 c5 -3 39 -6 75 -7 89 -2 203 -16 196 -23 -3
-4 11 -12 32 -18 l38 -12 -36 -1 c-21 -1 -42 5 -49 14 -7 8 -27 14 -44 14
l-31 -2 35 -7 35 -7 -31 -2 c-16 0 -39 6 -50 14 -10 8 -28 14 -39 15 -17 0
-18 -2 -5 -11 11 -8 8 -9 -15 -4 -16 4 -32 11 -33 16 -2 5 -25 7 -53 3 -34 -5
-49 -3 -49 5 0 7 -7 11 -16 9 -10 -2 -19 3 -21 10 -4 10 2 11 24 6 15 -4 32
-9 37 -12z"/>
<path d="M265 770 c3 -5 11 -10 16 -10 6 0 7 5 4 10 -3 6 -11 10 -16 10 -6 0
-7 -4 -4 -10z"/>
<path d="M1956 773 c-3 -3 -3 -10 0 -14 7 -12 34 -11 34 0 0 11 -26 22 -34 14z"/>
<path d="M54 762 c3 -3 1 -10 -4 -17 -13 -16 16 -55 41 -55 25 0 35 25 21 54
-7 16 -19 24 -37 24 -14 0 -23 -3 -21 -6z m51 -38 c0 -10 -7 -20 -16 -22 -14
-2 -18 16 -10 46 3 13 26 -8 26 -24z"/>
<path d="M488 758 c5 -5 16 -8 23 -6 8 3 3 7 -10 11 -17 4 -21 3 -13 -5z"/>
<path d="M1526 754 c-11 -7 -18 -16 -15 -18 2 -2 13 2 23 10 11 7 18 16 15 18
-2 2 -13 -2 -23 -10z"/>
<path d="M651 744 c0 -11 3 -14 6 -6 3 7 2 16 -1 19 -3 4 -6 -2 -5 -13z"/>
<path d="M2421 748 c0 -9 -7 -18 -13 -21 -10 -4 -10 -7 0 -18 7 -8 12 -9 12
-2 0 6 8 10 18 8 9 -1 12 0 5 2 -6 2 -14 14 -16 26 -3 14 -5 16 -6 5z"/>
<path d="M693 736 c1 -11 9 -21 17 -23 10 -3 11 -2 4 4 -6 4 -14 15 -17 23 -5
11 -6 9 -4 -4z"/>
<path d="M870 741 c0 -5 5 -13 10 -16 6 -3 10 -2 10 4 0 5 -4 13 -10 16 -5 3
-10 2 -10 -4z"/>
<path d="M1183 735 c0 -8 4 -15 9 -15 4 0 8 4 8 9 0 6 -4 12 -8 15 -5 3 -9 -1
-9 -9z"/>
<path d="M2336 742 c-2 -4 11 -6 30 -4 19 2 34 6 34 8 0 8 -59 4 -64 -4z"/>
<path d="M1280 730 c0 -5 5 -10 10 -10 6 0 10 5 10 10 0 6 -4 10 -10 10 -5 0
-10 -4 -10 -10z"/>
<path d="M333 723 c9 -2 23 -2 30 0 6 3 -1 5 -18 5 -16 0 -22 -2 -12 -5z"/>
<path d="M510 726 c0 -2 7 -6 15 -10 8 -3 15 -1 15 4 0 6 -7 10 -15 10 -8 0
-15 -2 -15 -4z"/>
<path d="M1248 723 c7 -3 16 -2 19 1 4 3 -2 6 -13 5 -11 0 -14 -3 -6 -6z"/>
<path d="M1560 719 c0 -4 13 -10 30 -14 16 -4 32 -11 35 -16 8 -13 45 -11 45
2 0 5 -4 8 -9 5 -5 -4 -11 -1 -13 5 -4 13 -88 30 -88 18z"/>
<path d="M1448 713 c7 -3 16 -2 19 1 4 3 -2 6 -13 5 -11 0 -14 -3 -6 -6z"/>
<path d="M1108 703 c7 -3 16 -2 19 1 4 3 -2 6 -13 5 -11 0 -14 -3 -6 -6z"/>
<path d="M1750 699 c0 -5 5 -7 10 -4 6 3 10 8 10 11 0 2 -4 4 -10 4 -5 0 -10
-5 -10 -11z"/>
<path d="M1290 689 c0 -5 5 -7 10 -4 6 3 10 8 10 11 0 2 -4 4 -10 4 -5 0 -10
-5 -10 -11z"/>
<path d="M1560 691 c0 -12 63 -41 87 -41 11 1 6 7 -18 19 -52 26 -69 31 -69
22z"/>
<path d="M1771 681 c-10 -7 -8 -9 10 -9 13 0 33 -2 44 -4 11 -3 14 -3 8 -1 -7
3 -13 9 -13 14 0 11 -31 12 -49 0z"/>
<path d="M2390 680 c-9 -6 -10 -10 -3 -10 6 0 15 5 18 10 8 12 4 12 -15 0z"/>
<path d="M1101 666 c11 -9 69 -15 64 -6 -3 6 -20 10 -37 10 -17 0 -29 -2 -27
-4z"/>
<path d="M1216 651 c-4 -5 3 -7 14 -4 23 6 26 13 6 13 -8 0 -17 -4 -20 -9z"/>
<path d="M1766 651 c5 -5 25 -12 44 -16 l35 -6 -29 15 c-31 17 -66 22 -50 7z"/>
<path d="M1868 653 c7 -3 16 -2 19 1 4 3 -2 6 -13 5 -11 0 -14 -3 -6 -6z"/>
<path d="M1298 643 c7 -3 16 -2 19 1 4 3 -2 6 -13 5 -11 0 -14 -3 -6 -6z"/>
<path d="M1390 636 c0 -2 7 -7 16 -10 8 -3 12 -2 9 4 -6 10 -25 14 -25 6z"/>
<path d="M2872 631 c-9 -5 6 -14 45 -26 32 -10 64 -20 71 -23 21 -7 13 12 -14
31 -19 14 -28 16 -38 7 -11 -8 -18 -7 -29 5 -18 17 -18 17 -35 6z"/>
<path d="M1510 590 c0 -5 5 -10 11 -10 5 0 7 5 4 10 -3 6 -8 10 -11 10 -2 0
-4 -4 -4 -10z"/>
<path d="M1708 595 c-4 -5 -53 -12 -97 -14 -11 -1 -12 -4 -4 -12 6 -6 76 -12
164 -15 85 -3 183 -7 219 -9 52 -4 59 -3 35 5 -16 6 -59 12 -95 14 -36 3 -77
7 -92 11 -15 4 -35 2 -45 -3 -13 -8 -22 -7 -35 5 -15 13 -20 13 -33 3 -13 -11
-14 -10 -9 4 6 16 2 21 -8 11z"/>
<path d="M1770 579 c0 -5 5 -7 10 -4 6 3 10 8 10 11 0 2 -4 4 -10 4 -5 0 -10
-5 -10 -11z"/>
<path d="M1472 569 c-12 -5 -37 -11 -55 -13 -67 -9 -107 -19 -107 -25 0 -7
181 17 189 24 12 12 -7 21 -27 14z"/>
<path d="M2654 554 c3 -21 10 -23 23 -9 9 10 8 14 -6 18 -12 3 -18 0 -17 -9z"/>
<path d="M2741 559 c-1 -3 4 -21 10 -38 10 -28 16 -32 37 -28 14 3 38 1 53 -3
17 -5 29 -5 29 1 0 5 5 9 11 9 5 0 8 -4 4 -9 -6 -11 55 -31 93 -31 12 0 22 4
22 10 0 5 -3 9 -7 9 -5 -1 -15 -1 -23 0 -13 1 -13 2 0 11 12 8 9 10 -12 11
-16 1 -32 3 -38 4 -5 1 -18 3 -27 4 -16 2 -16 3 1 10 19 7 19 8 0 15 -11 4
-20 3 -22 -3 -5 -15 -52 -14 -52 2 0 8 -4 7 -10 -3 -6 -10 -10 -11 -10 -2 0 6
-11 12 -24 12 -13 0 -27 6 -29 13 -3 6 -6 9 -6 6z"/>
<path d="M2065 540 c3 -5 13 -6 22 -3 13 5 15 2 9 -13 -5 -14 -4 -16 5 -7 15
15 3 33 -22 33 -11 0 -18 -4 -14 -10z"/>
<path d="M2615 540 c4 -6 11 -8 16 -5 14 9 11 15 -7 15 -8 0 -12 -5 -9 -10z"/>
<path d="M1500 530 c-9 -6 -10 -10 -3 -10 6 0 15 5 18 10 8 12 4 12 -15 0z"/>
<path d="M1662 403 c-1 -92 -6 -143 -13 -143 -7 0 -9 45 -7 134 2 74 0 132 -4
129 -5 -2 -8 -62 -8 -134 0 -152 -18 -177 -23 -31 l-3 97 -2 -102 -2 -103 -40
0 -39 0 -4 98 -3 97 -2 -102 c-1 -66 -6 -103 -13 -103 -7 0 -10 35 -7 109 1
60 0 107 -4 104 -5 -2 -8 -51 -8 -109 0 -68 -4 -104 -11 -104 -7 0 -8 43 -3
145 4 97 3 145 -4 145 -5 0 -10 -12 -9 -27 4 -102 -4 -273 -13 -273 -6 0 -8
54 -4 153 4 83 3 149 -1 145 -8 -8 -11 -48 -13 -200 -1 -54 -6 -98 -10 -98 -5
0 -6 66 -4 148 2 81 2 145 -1 142 -4 -5 -16 -184 -17 -257 0 -18 -3 -33 -7
-33 -5 0 -7 66 -5 147 1 101 -1 143 -8 133 -5 -8 -10 -76 -10 -151 0 -102 -3
-136 -12 -136 -7 0 -27 -3 -45 -7 -30 -7 -31 -6 -29 23 1 18 -3 31 -9 31 -7 0
-10 -12 -7 -29 5 -34 8 -33 -153 -52 -49 -5 -100 -13 -112 -16 -21 -5 -23 -2
-23 33 0 43 -9 42 -12 -2 -1 -16 -6 -35 -12 -43 -8 -11 -8 -13 2 -7 11 6 13
-2 9 -38 -2 -26 0 -49 5 -52 4 -3 8 18 8 45 0 28 2 51 4 51 13 0 244 31 262
35 19 4 21 0 22 -60 l1 -64 -57 -11 c-31 -6 -65 -14 -74 -16 -12 -4 -18 0 -18
10 0 9 -4 16 -10 16 -5 0 -7 -6 -4 -14 6 -15 -61 -32 -106 -27 -19 2 -22 0
-13 -10 9 -9 25 -9 63 -2 43 9 52 8 60 -6 9 -15 9 -14 10 1 0 18 12 23 81 33
70 9 80 21 82 92 1 59 2 62 28 65 23 4 28 0 33 -25 5 -23 10 -28 26 -24 10 3
21 0 24 -7 3 -7 7 -8 13 -1 4 6 17 10 28 10 11 0 26 4 33 9 7 5 12 5 12 -2 0
-5 11 -12 25 -14 23 -5 25 -3 25 37 0 29 5 45 15 49 16 6 17 1 19 -68 1 -40 1
-40 -49 -52 l-50 -12 53 5 54 6 -2 -34 c-3 -49 0 -57 10 -31 5 12 7 29 4 37
-4 9 0 15 7 15 11 0 11 3 -1 11 -12 9 -11 10 8 6 21 -5 22 -2 22 64 0 81 17
93 23 17 l3 -53 2 53 c1 30 7 52 13 52 7 0 9 -9 5 -22 -3 -13 -6 -38 -6 -55 0
-21 -5 -33 -13 -33 -10 0 -15 -19 -16 -72 -3 -85 7 -87 13 -4 6 81 16 82 16 3
0 -51 3 -67 14 -67 17 0 27 127 11 135 -5 3 2 3 18 1 15 -2 27 1 27 6 0 5 5 8
12 6 7 -3 11 -28 9 -76 -1 -46 2 -72 8 -72 7 0 11 30 11 78 l0 79 34 1 c30 1
35 -2 39 -26 4 -25 4 -24 6 6 0 21 6 32 16 32 11 0 15 -19 18 -87 l3 -88 2 91
c2 82 4 92 22 97 19 5 20 0 22 -91 l2 -97 3 92 c3 84 6 93 23 93 17 0 20 -9
23 -92 l3 -93 2 92 c2 85 3 91 22 86 17 -5 20 -16 23 -92 l3 -86 2 88 c1 48 5
87 10 87 26 -1 34 -20 30 -79 -1 -33 0 -61 5 -61 4 0 7 27 7 60 0 53 2 60 20
60 18 0 20 -7 22 -77 l2 -78 3 73 c3 64 6 72 23 72 18 0 20 -8 22 -72 l2 -73
3 68 c2 37 8 67 14 67 7 0 9 -25 7 -65 -1 -36 0 -65 5 -65 4 0 8 30 9 68 l2
67 6 -70 6 -70 2 63 c1 34 7 62 12 62 6 0 11 -28 12 -62 l2 -63 3 55 c2 30 9
60 15 65 7 7 8 -8 4 -52 -5 -42 -3 -63 4 -63 6 0 10 24 10 56 0 47 3 55 16 50
9 -3 18 -6 20 -6 2 0 5 -24 6 -52 1 -46 2 -48 5 -13 6 67 17 74 23 15 l7 -55
1 48 c1 26 6 47 11 47 5 0 7 -17 4 -39 -3 -23 -1 -41 6 -45 7 -5 11 6 11 35 0
28 6 46 18 55 16 13 16 13 -3 14 -11 1 -27 3 -35 5 -8 1 -51 10 -95 19 -44 10
-81 19 -84 22 -7 7 -2 6 211 -36 112 -23 219 -40 238 -38 32 2 35 1 33 -22 -3
-23 -2 -23 6 -4 8 17 19 128 21 202 0 29 17 29 23 0 3 -13 3 -5 1 18 -2 22 2
46 8 52 8 8 4 14 -16 23 -14 7 -28 10 -31 8 -2 -3 -6 -60 -8 -127 -3 -68 -7
-126 -11 -129 -13 -13 -83 -6 -246 27 -99 19 -168 38 -173 46 -4 8 -16 14 -25
13 -14 0 -13 -2 3 -9 19 -8 19 -9 -2 -9 -32 -1 -54 10 -46 23 5 7 2 7 -8 -1
-10 -8 -26 -9 -54 -3 -60 14 -87 10 -35 -5 60 -17 31 -18 -45 -1 -33 8 -50 14
-37 15 12 1 30 6 40 11 9 6 76 21 147 34 72 13 115 25 96 25 -47 1 -35 9 30
20 36 6 44 9 24 10 -17 0 -100 -18 -185 -42 l-155 -42 -110 22 c-60 12 -117
23 -125 25 -18 4 352 56 398 55 31 0 78 30 67 42 -4 3 -10 -1 -15 -9 -6 -9
-27 -15 -57 -16 -26 -1 -140 -16 -252 -33 -112 -17 -212 -29 -222 -26 -16 6
-19 21 -22 138 l-3 132 -2 -142z m1062 -78 c-4 -8 -8 -15 -10 -15 -2 0 -4 7
-4 15 0 8 4 15 10 15 5 0 7 -7 4 -15z m-547 -1 c-3 -3 -12 -4 -19 -1 -8 3 -5
6 6 6 11 1 17 -2 13 -5z m70 -60 c-3 -3 -12 -4 -19 -1 -8 3 -5 6 6 6 11 1 17
-2 13 -5z m-448 -18 c31 -8 82 -20 114 -26 32 -6 57 -14 54 -16 -2 -2 -50 5
-106 17 -57 11 -105 18 -108 15 -3 -3 -6 -20 -7 -38 -1 -26 -6 -33 -30 -39
-17 -5 -32 -7 -34 -4 -9 8 10 44 26 48 9 2 7 3 -5 2 -13 -1 -23 1 -23 6 0 4
-3 15 -7 24 -5 15 -3 16 15 6 25 -13 52 -14 52 -2 0 5 -12 12 -27 14 l-28 4
29 2 c15 0 54 -5 85 -13z m-199 -61 c0 -42 -3 -55 -15 -55 -8 0 -15 9 -15 20
0 11 6 20 13 20 8 0 9 3 1 8 -6 4 -14 19 -18 35 -5 23 -3 27 14 27 18 0 20 -6
20 -55z m-92 10 c0 -19 -5 -35 -10 -35 -6 0 -8 6 -5 14 5 12 -7 13 -69 9 -52
-4 -74 -3 -74 6 0 6 18 11 45 11 25 0 45 4 45 8 0 5 14 6 31 4 22 -3 30 -1 25
7 -4 6 -3 11 2 11 6 0 10 -16 10 -35z m334 8 l53 -7 -50 -12 c-77 -19 -85 -18
-85 12 0 19 4 25 15 20 8 -3 38 -9 67 -13z m341 -40 c-7 -2 -21 -2 -30 0 -10
3 -4 5 12 5 17 0 24 -2 18 -5z"/>
<path d="M1688 466 c-9 -93 -10 -156 -2 -156 3 0 37 7 75 16 38 9 77 13 85 10
10 -4 12 -2 8 6 -5 7 1 9 20 6 19 -4 24 -2 17 6 -6 7 -12 41 -14 76 l-3 65 -2
-67 c-1 -43 -6 -68 -13 -68 -7 0 -10 12 -7 33 3 17 2 41 -3 52 -5 14 -8 2 -10
-40 l-3 -60 -6 75 -6 75 -2 -72 c-1 -46 -6 -73 -13 -73 -8 0 -9 23 -5 75 4 47
3 75 -3 75 -6 0 -12 -37 -14 -82 l-3 -83 -3 100 c-3 90 -4 95 -11 50 -5 -27
-10 -72 -11 -100 -2 -31 -5 -11 -9 55 l-6 105 -2 -107 c-1 -60 -5 -108 -10
-108 -4 0 -6 48 -4 106 3 77 1 105 -7 100 -7 -5 -12 -48 -13 -114 l-2 -107 -5
115 -6 115 -7 -79z"/>
<path d="M1268 523 c6 -2 18 -2 25 0 6 3 1 5 -13 5 -14 0 -19 -2 -12 -5z"/>
<path d="M1790 520 c0 -5 5 -10 11 -10 5 0 7 5 4 10 -3 6 -8 10 -11 10 -2 0
-4 -4 -4 -10z"/>
<path d="M1821 514 c0 -11 3 -14 6 -6 3 7 2 16 -1 19 -3 4 -6 -2 -5 -13z"/>
<path d="M2959 519 c-10 -6 -7 -9 14 -9 29 0 35 5 14 13 -8 3 -20 1 -28 -4z"/>
<path d="M1341 485 c-8 -66 -7 -255 1 -247 5 5 7 69 5 143 -1 74 -4 121 -6
104z"/>
<path d="M1309 438 c-1 -35 -3 -86 -5 -115 -2 -29 1 -55 5 -58 5 -2 10 49 10
115 1 66 -1 120 -4 120 -3 0 -6 -28 -6 -62z"/>
<path d="M1516 473 c-6 -14 -5 -15 5 -6 7 7 10 15 7 18 -3 3 -9 -2 -12 -12z"/>
<path d="M1840 480 c0 -5 5 -10 11 -10 5 0 7 5 4 10 -3 6 -8 10 -11 10 -2 0
-4 -4 -4 -10z"/>
<path d="M2290 479 c0 -5 5 -7 10 -4 6 3 10 8 10 11 0 2 -4 4 -10 4 -5 0 -10
-5 -10 -11z"/>
<path d="M2750 461 c0 -16 10 -21 57 -27 40 -5 58 -3 61 5 5 16 22 14 22 -4 0
-12 10 -14 51 -11 52 4 72 13 48 20 -54 15 -170 36 -201 36 -31 0 -38 -4 -38
-19z m95 -10 c-6 -6 -25 -6 -45 -1 l-35 8 45 1 c27 1 40 -3 35 -8z m75 -11 c0
-5 -2 -10 -4 -10 -3 0 -8 5 -11 10 -3 6 -1 10 4 10 6 0 11 -4 11 -10z"/>
<path d="M2635 446 c-71 -22 -134 -53 -90 -42 11 2 34 7 50 10 116 20 145 28
145 42 0 19 -23 17 -105 -10z"/>
<path d="M1922 417 c-1 -32 -6 -46 -13 -41 -6 4 -9 19 -5 36 3 18 2 27 -4 23
-6 -3 -10 -21 -10 -39 0 -28 4 -34 25 -38 14 -3 25 -2 25 2 0 13 144 40 151
28 5 -8 26 -2 64 16 32 15 55 30 52 33 -4 3 -23 -3 -44 -13 -46 -23 -105 -25
-115 -4 -5 12 -7 12 -7 -2 -1 -10 -8 -18 -16 -18 -8 0 -16 0 -17 0 -2 -1 -20
-5 -40 -9 l-37 -9 -4 42 -4 41 -1 -48z"/>
<path d="M1283 380 c0 -41 2 -58 4 -37 2 20 2 54 0 75 -2 20 -4 3 -4 -38z"/>
<path d="M1941 414 c0 -11 3 -14 6 -6 3 7 2 16 -1 19 -3 4 -6 -2 -5 -13z"/>
<path d="M2710 420 c-17 -5 -19 -8 -7 -9 9 -1 17 -5 17 -11 0 -5 -7 -7 -15 -4
-10 4 -15 0 -15 -11 0 -11 5 -15 14 -12 8 3 16 2 18 -3 2 -5 15 -12 31 -15 20
-5 27 -3 27 7 0 8 7 23 16 34 11 14 14 15 11 3 -5 -14 -1 -15 29 -4 50 17 53
26 9 25 -22 -1 -56 1 -75 4 -19 3 -46 1 -60 -4z m35 -10 c3 -5 1 -10 -4 -10
-6 0 -11 5 -11 10 0 6 2 10 4 10 3 0 8 -4 11 -10z m32 -12 c-3 -8 -6 -5 -6 6
-1 11 2 17 5 13 3 -3 4 -12 1 -19z m-13 -23 c6 -17 4 -18 -18 -9 -20 8 -21 24
-2 24 8 0 16 -7 20 -15z"/>
<path d="M1223 405 c0 -7 6 -11 14 -8 7 3 13 6 13 8 0 2 -6 5 -13 8 -8 3 -14
-1 -14 -8z"/>
<path d="M1193 375 c0 -22 2 -30 4 -17 2 12 2 30 0 40 -3 9 -5 -1 -4 -23z"/>
<path d="M2620 400 c0 -13 20 -13 40 0 12 8 9 10 -12 10 -16 0 -28 -4 -28 -10z"/>
<path d="M2908 403 c6 -2 18 -2 25 0 6 3 1 5 -13 5 -14 0 -19 -2 -12 -5z"/>
<path d="M2968 398 c5 -5 16 -8 23 -6 8 3 3 7 -10 11 -17 4 -21 3 -13 -5z"/>
<path d="M2484 390 c-6 -6 -44 -17 -85 -25 -41 -9 -84 -20 -96 -26 -11 -6 -26
-8 -32 -5 -14 9 -53 -12 -46 -24 3 -5 17 -5 33 1 15 5 37 8 47 7 11 -1 48 2
83 6 48 7 62 12 62 25 0 13 9 17 39 16 25 -1 37 3 34 9 -4 6 3 2 15 -8 19 -16
22 -17 22 -3 0 18 -5 22 -41 30 -14 4 -30 2 -35 -3z"/>
<path d="M2570 388 c0 -4 7 -8 15 -8 8 0 15 4 15 8 0 5 -7 9 -15 9 -8 0 -15
-4 -15 -9z"/>
<path d="M2808 363 c6 -2 18 -2 25 0 6 3 1 5 -13 5 -14 0 -19 -2 -12 -5z"/>
<path d="M2859 363 c-1 -2 -2 -7 -3 -12 0 -5 -4 -12 -8 -16 -8 -9 1 -35 13
-35 4 0 6 7 2 16 -3 9 0 20 8 25 20 12 49 11 49 -2 0 -6 -9 -9 -20 -6 -13 3
-20 0 -20 -9 0 -8 9 -14 20 -14 11 0 20 5 20 10 0 6 7 10 16 10 15 0 15 -3 -1
-26 -9 -15 -12 -23 -5 -19 7 4 16 2 20 -5 12 -19 49 -3 47 20 -2 26 -17 26
-17 0 0 -21 -15 -27 -25 -10 -3 6 -1 10 5 10 7 0 9 8 5 19 -4 15 0 20 17 23
13 2 -10 8 -49 13 -40 6 -74 9 -74 8z"/>
<path d="M2185 350 c3 -5 8 -10 11 -10 2 0 4 5 4 10 0 6 -5 10 -11 10 -5 0 -7
-4 -4 -10z"/>
<path d="M2275 350 c-3 -5 -1 -10 4 -10 6 0 11 5 11 10 0 6 -2 10 -4 10 -3 0
-8 -4 -11 -10z"/>
<path d="M2569 337 c-29 -12 -34 -16 -14 -11 17 3 47 7 68 8 21 1 42 7 48 13
17 17 -52 10 -102 -10z"/>
<path d="M1543 298 c1 -21 8 -34 18 -36 21 -4 32 24 19 46 -8 14 -9 12 -10
-10 0 -37 -17 -36 -24 2 -6 30 -6 30 -3 -2z"/>
<path d="M2500 320 c-13 -8 -12 -10 3 -10 9 0 17 5 17 10 0 12 -1 12 -20 0z"/>
<path d="M2446 309 c2 -4 -24 -14 -58 -22 -35 -9 -51 -16 -37 -16 15 -1 45 6
68 14 23 8 44 14 48 14 4 0 9 4 11 10 2 5 -6 9 -17 8 -11 0 -18 -4 -15 -8z"/>
<path d="M1090 285 c0 -14 4 -25 9 -25 4 0 6 11 3 25 -2 14 -6 25 -8 25 -2 0
-4 -11 -4 -25z"/>
<path d="M1222 290 c0 -14 2 -19 5 -12 2 6 2 18 0 25 -3 6 -5 1 -5 -13z"/>
<path d="M2007 283 c-54 -14 -96 -27 -94 -30 5 -4 208 44 215 52 9 9 -22 3
-121 -22z"/>
<path d="M1187 287 c-3 -8 -1 -20 4 -28 6 -10 9 -7 9 14 0 29 -5 35 -13 14z"/>
<path d="M2545 290 c3 -5 13 -6 22 -3 12 5 14 3 8 -7 -5 -8 -3 -11 5 -8 28 9
22 28 -10 28 -17 0 -29 -4 -25 -10z"/>
<path d="M2610 290 c0 -4 13 -10 29 -12 17 -2 28 -1 26 3 -7 10 -55 18 -55 9z"/>
<path d="M1033 269 c-18 -5 -33 -12 -33 -15 0 -3 9 -3 20 1 26 8 47 -4 29 -17
-11 -8 -11 -9 1 -5 8 2 14 12 12 22 -2 11 1 14 9 9 8 -4 10 -3 5 4 -4 7 -8 12
-9 11 -1 0 -17 -5 -34 -10z"/>
<path d="M1305 240 c3 -5 8 -10 11 -10 2 0 4 5 4 10 0 6 -5 10 -11 10 -5 0 -7
-4 -4 -10z"/>
<path d="M2950 230 c0 -5 5 -10 11 -10 5 0 7 5 4 10 -3 6 -8 10 -11 10 -2 0
-4 -4 -4 -10z"/>
<path d="M2910 170 c-30 -10 -81 -26 -112 -35 l-58 -16 0 -46 c0 -50 9 -54 14
-7 2 16 4 33 5 37 0 5 5 6 10 2 5 -3 13 0 16 6 4 5 14 8 23 4 9 -3 13 -3 9 1
-13 13 56 32 72 20 11 -8 13 -8 8 0 -4 7 0 14 8 18 8 3 15 1 15 -5 0 -6 7 -3
16 5 14 14 35 21 57 17 4 0 7 4 7 9 0 14 -27 11 -90 -10z"/>
<path d="M1904 85 c0 -50 1 -71 3 -48 2 23 2 64 0 90 -2 26 -3 8 -3 -42z"/>
<path d="M2721 154 c0 -11 3 -14 6 -6 3 7 2 16 -1 19 -3 4 -6 -2 -5 -13z"/>
<path d="M898 153 c7 -3 16 -2 19 1 4 3 -2 6 -13 5 -11 0 -14 -3 -6 -6z"/>
<path d="M1853 80 c0 -47 2 -66 4 -42 2 23 2 61 0 85 -2 23 -4 4 -4 -43z"/>
<path d="M1940 78 c0 -45 2 -79 4 -77 8 9 12 159 4 159 -4 0 -8 -37 -8 -82z"/>
<path d="M1993 80 c0 -47 2 -66 4 -42 2 23 2 61 0 85 -2 23 -4 4 -4 -43z"/>
<path d="M2043 80 c0 -47 2 -66 4 -42 2 23 2 61 0 85 -2 23 -4 4 -4 -43z"/>
<path d="M1803 75 c0 -44 2 -61 4 -37 2 23 2 59 0 80 -2 20 -4 1 -4 -43z"/>
<path d="M1783 70 c0 -41 2 -58 4 -38 2 21 2 55 0 76 -2 20 -4 3 -4 -38z"/>
<path d="M2093 70 c0 -41 2 -58 4 -38 2 21 2 55 0 76 -2 20 -4 3 -4 -38z"/>
<path d="M901 114 c0 -11 3 -14 6 -6 3 7 2 16 -1 19 -3 4 -6 -2 -5 -13z"/>
<path d="M2143 65 c0 -38 2 -53 4 -32 2 20 2 52 0 70 -2 17 -4 1 -4 -38z"/>
<path d="M1171 89 c-24 -5 -47 -11 -50 -15 -9 -10 83 7 94 17 5 5 7 9 5 8 -3
-1 -25 -5 -49 -10z"/>
<path d="M1373 92 c-13 -2 -23 -7 -23 -12 0 -7 67 3 95 15 11 4 -36 2 -72 -3z"/>
<path d="M1828 75 c-3 -14 -1 -25 3 -25 5 0 9 11 9 25 0 14 -2 25 -4 25 -2 0
-6 -11 -8 -25z"/>
<path d="M2303 50 c0 -30 2 -43 4 -28 2 16 2 40 0 55 -2 16 -4 3 -4 -27z"/>
<path d="M2426 92 c-13 -21 -18 -92 -7 -92 6 0 11 17 11 39 0 22 4 43 10 46 6
4 7 -11 4 -39 -5 -31 -3 -46 5 -46 6 0 11 15 11 33 0 38 6 48 26 40 8 -3 14
-20 15 -42 l1 -36 13 35 13 35 4 -35 3 -35 6 38 c4 29 1 40 -10 46 -26 13 -99
22 -105 13z"/>
<path d="M1435 70 c-3 -6 1 -7 9 -4 18 7 21 14 7 14 -6 0 -13 -4 -16 -10z"/>
<path d="M1472 44 c-1 -15 2 -22 8 -19 12 7 13 32 2 39 -4 2 -9 -7 -10 -20z"/>
<path d="M1601 54 c0 -11 3 -14 6 -6 3 7 2 16 -1 19 -3 4 -6 -2 -5 -13z"/>
<path d="M2473 35 c0 -22 2 -30 4 -17 2 12 2 30 0 40 -3 9 -5 -1 -4 -23z"/>
<path d="M2573 63 c-7 -3 -12 -19 -12 -36 2 -31 2 -31 6 -4 5 30 25 32 29 3 1
-10 6 -21 10 -24 4 -4 4 5 2 21 -3 15 -1 27 3 27 5 0 9 5 9 11 0 8 -4 8 -14 0
-8 -7 -16 -8 -18 -3 -1 5 -9 7 -15 5z"/>
<path d="M987 48 c6 -11 45 -10 62 1 10 6 1 9 -26 8 -23 -1 -39 -5 -36 -9z"/>
<path d="M1351 44 c0 -11 3 -14 6 -6 3 7 2 16 -1 19 -3 4 -6 -2 -5 -13z"/>
<path d="M2633 47 c-3 -6 -1 -7 5 -3 6 4 12 -5 14 -21 l3 -28 6 31 c5 30 -13
44 -28 21z"/>
<path d="M847 35 c3 -8 9 -12 14 -9 12 7 11 11 -5 17 -10 4 -13 1 -9 -8z"/>
<path d="M1256 32 c-4 -13 -5 -26 -2 -29 10 -11 18 4 14 29 l-4 23 -8 -23z"/>
<path d="M1442 25 c0 -17 2 -22 5 -12 2 9 2 23 0 30 -3 6 -5 -1 -5 -18z"/>
<path d="M2981 34 c0 -11 3 -14 6 -6 3 7 2 16 -1 19 -3 4 -6 -2 -5 -13z"/>
<path d="M888 33 c7 -3 16 -2 19 1 4 3 -2 6 -13 5 -11 0 -14 -3 -6 -6z"/>
<path d="M1120 10 c0 -12 8 -12 35 0 18 8 17 9 -7 9 -16 1 -28 -3 -28 -9z"/>
</g>
</svg>
